<svg width="37" height="37" viewBox="0 0 37 37" fill="none" xmlns="http://www.w3.org/2000/svg">
<path fill-rule="evenodd" clip-rule="evenodd" d="M18.4819 4.1C15.9633 4.09954 13.4886 4.75967 11.3048 6.01453C9.12103 7.26938 7.30458 9.07505 6.03675 11.2513C4.76892 13.4276 4.09405 15.8983 4.07952 18.4169C4.06499 20.9355 4.71129 23.4138 5.95392 25.6046C6.79381 24.513 7.87349 23.6292 9.10947 23.0215C10.3454 22.4139 11.7046 22.0985 13.0819 22.1H23.8819C25.2592 22.0985 26.6184 22.4139 27.8543 23.0215C29.0903 23.6292 30.17 24.513 31.0099 25.6046C32.2525 23.4138 32.8988 20.9355 32.8843 18.4169C32.8698 15.8983 32.1949 13.4276 30.9271 11.2513C29.6592 9.07505 27.8428 7.26938 25.659 6.01453C23.4752 4.75967 21.0005 4.09954 18.4819 4.1ZM32.7793 29.4368C35.1859 26.2993 36.4877 22.4542 36.4819 18.5C36.4819 8.55859 28.4233 0.5 18.4819 0.5C8.54051 0.5 0.481923 8.55859 0.481923 18.5C0.475981 22.4542 1.77775 26.2994 4.18452 29.4368L4.17552 29.4692L4.81452 30.2126C6.50271 32.1863 8.59881 33.7705 10.9583 34.8559C13.3179 35.9414 15.8847 36.5023 18.4819 36.5C22.1311 36.5067 25.6952 35.3982 28.6969 33.323C29.9766 32.4388 31.1369 31.3934 32.1493 30.2126L32.7883 29.4692L32.7793 29.4368ZM18.4819 7.69999C17.0497 7.69999 15.6762 8.26892 14.6635 9.28162C13.6508 10.2943 13.0819 11.6678 13.0819 13.1C13.0819 14.5322 13.6508 15.9057 14.6635 16.9184C15.6762 17.9311 17.0497 18.5 18.4819 18.5C19.9141 18.5 21.2876 17.9311 22.3003 16.9184C23.313 15.9057 23.8819 14.5322 23.8819 13.1C23.8819 11.6678 23.313 10.2943 22.3003 9.28162C21.2876 8.26892 19.9141 7.69999 18.4819 7.69999Z" fill="white"/>
</svg>
