<svg width="9" height="16" viewBox="0 0 9 16" fill="none" xmlns="http://www.w3.org/2000/svg">
<g clip-path="url(#clip0_26_3172)">
<path d="M8.95808 7.41128C8.95808 7.71862 8.84831 7.98723 8.62878 8.21709L2.85638 13.9817C2.63685 14.2013 2.37083 14.311 2.05832 14.311C1.74581 14.311 1.47979 14.2013 1.26026 13.9817L0.586166 13.3193C0.369217 13.0868 0.260742 12.8169 0.260742 12.5096C0.260742 12.1971 0.369217 11.9323 0.586166 11.7154L4.89028 7.41128L0.586166 3.11491C0.369217 2.88505 0.260742 2.61644 0.260742 2.3091C0.260742 1.99659 0.369217 1.73057 0.586166 1.51104L1.26026 0.848566C1.47204 0.623869 1.73806 0.511519 2.05832 0.511519C2.37858 0.511519 2.6446 0.623869 2.85638 0.848566L8.62878 6.61321C8.84831 6.83016 8.95808 7.09618 8.95808 7.41128Z" fill="black"/>
</g>
<defs>
<clipPath id="clip0_26_3172">
<rect width="8.78" height="16" fill="white" transform="matrix(1 0 0 -1 0.219727 16)"/>
</clipPath>
</defs>
</svg>
