<svg width="10" height="14" viewBox="0 0 10 14" fill="none" xmlns="http://www.w3.org/2000/svg">
<path id="Vector" d="M9.3487 6.9999C9.3487 7.30725 9.23894 7.57585 9.01941 7.80571L3.24701 13.5704C3.02748 13.7899 2.76146 13.8997 2.44895 13.8997C2.13644 13.8997 1.87041 13.7899 1.65088 13.5704L0.976791 12.9079C0.759842 12.6754 0.651367 12.4056 0.651367 12.0982C0.651367 11.7857 0.759842 11.521 0.976791 11.304L5.28091 6.9999L0.976791 2.70353C0.759842 2.47367 0.651367 2.20507 0.651367 1.89772C0.651367 1.58521 0.759842 1.31919 0.976791 1.09966L1.65088 0.437189C1.86267 0.212492 2.12869 0.100143 2.44895 0.100143C2.7692 0.100143 3.03523 0.212492 3.24701 0.437189L9.01941 6.20184C9.23894 6.41879 9.3487 6.68481 9.3487 6.9999Z" fill="#565656"/>
</svg>
