<svg width="24" height="25" viewBox="0 0 24 25" fill="none" xmlns="http://www.w3.org/2000/svg">
<g id="ic:round-keyboard-arrow-right">
<path id="Vector" d="M9.29007 16.38L13.1701 12.5L9.29007 8.61999C9.19749 8.52741 9.12405 8.4175 9.07394 8.29653C9.02384 8.17557 8.99805 8.04592 8.99805 7.91499C8.99805 7.78406 9.02384 7.65441 9.07394 7.53345C9.12405 7.41248 9.19749 7.30257 9.29007 7.20999C9.38265 7.11741 9.49256 7.04397 9.61352 6.99386C9.73449 6.94376 9.86414 6.91797 9.99507 6.91797C10.126 6.91797 10.2556 6.94376 10.3766 6.99386C10.4976 7.04397 10.6075 7.11741 10.7001 7.20999L15.2901 11.8C15.6801 12.19 15.6801 12.82 15.2901 13.21L10.7001 17.8C10.6076 17.8927 10.4977 17.9662 10.3767 18.0164C10.2557 18.0666 10.126 18.0924 9.99507 18.0924C9.8641 18.0924 9.73442 18.0666 9.61344 18.0164C9.49247 17.9662 9.38258 17.8927 9.29007 17.8C8.91007 17.41 8.90007 16.77 9.29007 16.38Z" fill="#667085"/>
</g>
</svg>
