<svg width="15" height="9" viewBox="0 0 15 9" fill="none" xmlns="http://www.w3.org/2000/svg">
<path id="Vector" d="M7.20933 8.8487C6.90198 8.8487 6.63338 8.73894 6.40352 8.51941L0.638868 2.74701C0.419336 2.52748 0.30957 2.26146 0.30957 1.94895C0.30957 1.63644 0.419336 1.37041 0.638868 1.15088L1.30134 0.476791C1.53378 0.259842 1.80368 0.151367 2.11102 0.151367C2.42353 0.151367 2.68826 0.259842 2.90521 0.476791L7.20933 4.78091L11.5057 0.476791C11.7356 0.259842 12.0042 0.151367 12.3115 0.151367C12.624 0.151367 12.89 0.259842 13.1096 0.476791L13.772 1.15088C13.9967 1.36267 14.1091 1.62869 14.1091 1.94895C14.1091 2.2692 13.9967 2.53523 13.772 2.74701L8.00739 8.51941C7.79044 8.73894 7.52442 8.8487 7.20933 8.8487Z" fill="#565656"/>
</svg>
