<svg width="24" height="25" viewBox="0 0 24 25" fill="none" xmlns="http://www.w3.org/2000/svg">
<g id="ic:round-keyboard-arrow-right">
<path id="Vector" d="M8.12001 9.79007L12 13.6701L15.88 9.79007C15.9726 9.69749 16.0825 9.62405 16.2035 9.57394C16.3244 9.52384 16.4541 9.49805 16.585 9.49805C16.7159 9.49805 16.8456 9.52384 16.9666 9.57394C17.0875 9.62405 17.1974 9.69749 17.29 9.79007C17.3826 9.88265 17.456 9.99256 17.5061 10.1135C17.5562 10.2345 17.582 10.3641 17.582 10.4951C17.582 10.626 17.5562 10.7556 17.5061 10.8766C17.456 10.9976 17.3826 11.1075 17.29 11.2001L12.7 15.7901C12.31 16.1801 11.68 16.1801 11.29 15.7901L6.70001 11.2001C6.60731 11.1076 6.53376 10.9977 6.48358 10.8767C6.4334 10.7557 6.40757 10.626 6.40757 10.4951C6.40757 10.3641 6.4334 10.2344 6.48358 10.1134C6.53376 9.99247 6.60731 9.88258 6.70001 9.79007C7.09001 9.41007 7.73001 9.40007 8.12001 9.79007Z" fill="#667085"/>
</g>
</svg>
