<svg width="33" height="14" viewBox="0 0 33 14" fill="none" xmlns="http://www.w3.org/2000/svg">
<g clip-path="url(#clip0_26_3494)">
<path d="M21.0001 7.00014C21.0001 7.30749 20.8903 7.57609 20.6708 7.80596L14.8984 13.5706C14.6788 13.7901 14.4128 13.8999 14.1003 13.8999C13.7878 13.8999 13.5218 13.7901 13.3023 13.5706L12.6282 12.9081C12.4112 12.6757 12.3027 12.4058 12.3027 12.0984C12.3027 11.7859 12.4112 11.5212 12.6282 11.3043L16.9323 7.00014L12.6282 2.70378C12.4112 2.47391 12.3027 2.20531 12.3027 1.89797C12.3027 1.58546 12.4112 1.31943 12.6282 1.0999L13.3023 0.437433C13.514 0.212736 13.7801 0.100387 14.1003 0.100387C14.4206 0.100387 14.6866 0.212736 14.8984 0.437433L20.6708 6.20208C20.8903 6.41903 21.0001 6.68505 21.0001 7.00014Z" fill="#565656"/>
</g>
<defs>
<clipPath id="clip0_26_3494">
<rect width="32.6973" height="13.7995" fill="white" transform="matrix(1 0 0 -1 0.302734 13.8999)"/>
</clipPath>
</defs>
</svg>
