<svg width="7" height="12" viewBox="0 0 7 12" fill="none" xmlns="http://www.w3.org/2000/svg">
<path d="M1.35738 0.254389L6.67638 5.55761C6.73951 5.62074 6.78434 5.68914 6.81085 5.76279C6.83737 5.83645 6.85042 5.91536 6.85 5.99954C6.85 6.08372 6.83674 6.16264 6.81022 6.23629C6.78371 6.30995 6.73909 6.37834 6.67638 6.44148L1.35738 11.7605C1.21007 11.9078 1.02593 11.9814 0.804959 11.9814C0.583991 11.9814 0.394591 11.9025 0.236757 11.7447C0.078923 11.5869 6.08787e-06 11.4027 6.08787e-06 11.1923C6.08787e-06 10.9818 0.078923 10.7977 0.236757 10.6399L4.87707 5.99954L0.236757 1.35923C0.0894453 1.21191 0.0157892 1.0303 0.0157892 0.814384C0.0157892 0.598468 0.0947062 0.411802 0.25254 0.254389C0.410374 0.0965552 0.594513 0.0176383 0.804959 0.0176383C1.0154 0.0176383 1.19954 0.0965552 1.35738 0.254389Z" fill="white"/>
</svg>
