<svg width="13" height="7" viewBox="0 0 13 7" fill="none" xmlns="http://www.w3.org/2000/svg">
<path d="M12.2452 1.43218L6.94193 6.75118C6.8788 6.81431 6.81041 6.85914 6.73675 6.88565C6.6631 6.91217 6.58418 6.92522 6.5 6.92479C6.41582 6.92479 6.33691 6.91154 6.26325 6.88502C6.18959 6.8585 6.1212 6.81389 6.05807 6.75118L0.739064 1.43218C0.591752 1.28486 0.518097 1.10072 0.518097 0.879757C0.518097 0.65879 0.597014 0.469389 0.754847 0.311555C0.912681 0.153722 1.09682 0.0748046 1.30727 0.0748046C1.51771 0.0748046 1.70185 0.153722 1.85968 0.311555L6.5 4.95187L11.1403 0.311555C11.2876 0.164243 11.4692 0.0905873 11.6852 0.0905873C11.9011 0.0905873 12.0877 0.169504 12.2452 0.327338C12.403 0.485172 12.4819 0.669311 12.4819 0.879757C12.4819 1.0902 12.403 1.27434 12.2452 1.43218Z" fill="white"/>
</svg>
