<svg width="9" height="16" viewBox="0 0 9 16" fill="none" xmlns="http://www.w3.org/2000/svg">
<g clip-path="url(#clip0_26_3167)">
<path d="M6.13978 13.9739L0.36351 8.20537C0.146561 7.98842 0.0380859 7.72175 0.0380859 7.40537C0.0380859 7.08899 0.146561 6.82232 0.36351 6.60537L6.13978 0.840721C6.35673 0.621189 6.6234 0.511423 6.93978 0.511423C7.25617 0.511423 7.52283 0.621189 7.73978 0.840721L8.40612 1.50319C8.62307 1.72272 8.73155 1.99004 8.73155 2.30513C8.73155 2.62022 8.62307 2.88753 8.40612 3.10707L4.10201 7.41118L8.40612 11.7037C8.62307 11.9284 8.73155 12.1976 8.73155 12.5114C8.73155 12.8252 8.62307 13.0906 8.40612 13.3075L7.73978 13.9739C7.52283 14.1908 7.25617 14.2993 6.93978 14.2993C6.6234 14.2993 6.35673 14.1908 6.13978 13.9739Z" fill="black"/>
</g>
<defs>
<clipPath id="clip0_26_3167">
<rect width="8.77" height="16" fill="white" transform="matrix(1 0 0 -1 0 16)"/>
</clipPath>
</defs>
</svg>
