<svg width="8" height="12" viewBox="0 0 8 12" fill="none" xmlns="http://www.w3.org/2000/svg">
<path d="M6.06764 11.7456L0.748639 6.44239C0.685506 6.37926 0.640681 6.31086 0.614165 6.23721C0.587649 6.16355 0.574601 6.08464 0.575022 6.00046C0.575022 5.91628 0.58828 5.83736 0.614796 5.76371C0.641312 5.69005 0.685927 5.62166 0.748639 5.55852L6.06764 0.239522C6.21495 0.0922104 6.39909 0.0185547 6.62006 0.0185547C6.84103 0.0185547 7.03043 0.0974716 7.18826 0.255305C7.3461 0.413139 7.42501 0.597279 7.42501 0.807724C7.42501 1.01817 7.3461 1.20231 7.18826 1.36014L2.54795 6.00046L7.18826 10.6408C7.33557 10.7881 7.40923 10.9697 7.40923 11.1856C7.40923 11.4015 7.33031 11.5882 7.17248 11.7456C7.01464 11.9034 6.8305 11.9824 6.62006 11.9824C6.40961 11.9824 6.22548 11.9034 6.06764 11.7456Z" fill="white"/>
</svg>
