<svg width="9" height="14" viewBox="0 0 9 14" fill="none" xmlns="http://www.w3.org/2000/svg">
<rect width="9" height="14" fill="#1E1E1E"/>
<g id="Forum">
<rect width="414" height="921" transform="translate(-23 -187)" fill="white"/>
<g id="Container">
<g id="Container_2">
<g id="Container_3">
<g id="Frame 2320">
<g id="Icon">
<path id="Vector" d="M0.302664 7.0001C0.302664 6.69275 0.41243 6.42415 0.631962 6.19429L6.40436 0.42964C6.62389 0.210108 6.88991 0.100342 7.20242 0.100342C7.51493 0.100342 7.78095 0.210108 8.00048 0.42964L8.67458 1.09211C8.89153 1.32455 9 1.59445 9 1.90179C9 2.2143 8.89153 2.47903 8.67458 2.69598L4.37046 7.0001L8.67458 11.2965C8.89153 11.5263 9 11.7949 9 12.1023C9 12.4148 8.89153 12.6808 8.67458 12.9003L8.00048 13.5628C7.7887 13.7875 7.52268 13.8999 7.20242 13.8999C6.88216 13.8999 6.61614 13.7875 6.40436 13.5628L0.631962 7.79816C0.41243 7.58121 0.302664 7.31519 0.302664 7.0001Z" fill="#565656"/>
<rect x="0.5" y="-0.5" width="31" height="31" rx="3.5" transform="matrix(1 0 0 -1 -7 22)" stroke="black"/>
</g>
</g>
</g>
</g>
</g>
</g>
</svg>
