<svg width="18" height="24" viewBox="0 0 18 24" fill="none" xmlns="http://www.w3.org/2000/svg">
<g clip-path="url(#clip0_26_3490)">
<path d="M17.0882 20.705C17.2393 20.705 17.3681 20.7592 17.4747 20.8677C17.5812 20.9761 17.6364 21.1059 17.6403 21.257V23.3142C17.6403 23.4652 17.587 23.595 17.4805 23.7035C17.374 23.812 17.2451 23.8662 17.0941 23.8662H2.74635C2.73861 23.8662 2.72989 23.8652 2.7202 23.8633C2.71052 23.8614 2.70083 23.8594 2.69115 23.8575C2.68146 23.8556 2.67275 23.8546 2.665 23.8546C2.21173 23.8275 1.79526 23.6928 1.4156 23.4507C1.03594 23.2086 0.736669 22.8909 0.517782 22.4977C0.298896 22.1045 0.189453 21.6793 0.189453 21.2221C0.189453 21.2105 0.19139 21.1776 0.195264 21.1234C0.187516 20.5267 0.2834 17.4081 0.482916 11.7674C0.682431 6.12674 0.782189 3.12432 0.782189 2.76016C0.778315 2.74466 0.776378 2.72723 0.776378 2.70786C0.776378 2.35144 0.846112 2.00955 0.985579 1.68219C1.12505 1.35483 1.31197 1.07299 1.54635 0.83667C1.78074 0.600351 2.06161 0.412458 2.38897 0.272991C2.71633 0.133524 3.05822 0.0637894 3.41463 0.0637894H16.6873C16.788 0.0637894 16.88 0.0889702 16.9633 0.139334C17.0466 0.189697 17.1125 0.256525 17.1609 0.339819C17.2093 0.423111 17.2335 0.515121 17.2335 0.615847L17.6345 19.1185C17.6345 19.1766 17.6258 19.2338 17.6083 19.2899C17.5909 19.3461 17.5648 19.3965 17.5299 19.441C17.495 19.4856 17.4553 19.5253 17.4108 19.5602C17.3662 19.595 17.3168 19.6212 17.2626 19.6386C17.2083 19.656 17.1502 19.6648 17.0882 19.6648H17.0824C17.0398 19.6725 16.9972 19.6764 16.9546 19.6764H2.8219C2.41512 19.6764 2.06355 19.8178 1.76718 20.1006C1.47081 20.3834 1.311 20.7282 1.28776 21.135V21.2454C1.28776 21.2493 1.28679 21.256 1.28485 21.2657C1.28292 21.2754 1.28195 21.2841 1.28195 21.2919C1.29744 21.7025 1.45434 22.0512 1.75265 22.3379C2.05095 22.6246 2.40737 22.7679 2.8219 22.7679H16.5362V21.257C16.5362 21.1059 16.5904 20.9761 16.6989 20.8677C16.8074 20.7592 16.9372 20.705 17.0882 20.705ZM4.66403 3.51561L4.55943 6.78728H14.2292L14.0897 3.51561H4.66403ZM15.4553 20.8386H2.93231C2.88582 20.8386 2.84708 20.8231 2.81609 20.7921C2.78509 20.7611 2.7696 20.7224 2.7696 20.6759C2.7696 20.6294 2.78509 20.5907 2.81609 20.5597C2.84708 20.5287 2.88582 20.5132 2.93231 20.5132H15.4553C15.5018 20.5132 15.5405 20.5287 15.5715 20.5597C15.6025 20.5907 15.618 20.6294 15.618 20.6759C15.618 20.7224 15.6025 20.7611 15.5715 20.7921C15.5405 20.8231 15.5018 20.8386 15.4553 20.8386ZM15.4553 22.1229H2.93231C2.88582 22.1229 2.84708 22.1064 2.81609 22.0735C2.78509 22.0405 2.7696 22.0028 2.7696 21.9602C2.7696 21.9137 2.78509 21.874 2.81609 21.841C2.84708 21.8081 2.88582 21.7916 2.93231 21.7916H15.4553C15.5018 21.7916 15.5405 21.8081 15.5715 21.841C15.6025 21.874 15.618 21.9137 15.618 21.9602C15.618 22.0028 15.6025 22.0405 15.5715 22.0735C15.5405 22.1064 15.5018 22.1229 15.4553 22.1229ZM15.4553 21.4778H2.93231C2.88582 21.4778 2.84708 21.4623 2.81609 21.4313C2.78509 21.4004 2.7696 21.3616 2.7696 21.3151C2.7696 21.288 2.77638 21.2609 2.78994 21.2338C2.8035 21.2066 2.82287 21.1863 2.84805 21.1727C2.87323 21.1592 2.90132 21.1524 2.93231 21.1524H15.4553C15.5018 21.1524 15.5405 21.1679 15.5715 21.1989C15.6025 21.2299 15.618 21.2686 15.618 21.3151C15.618 21.3616 15.6025 21.4004 15.5715 21.4313C15.5405 21.4623 15.5018 21.4778 15.4553 21.4778Z" fill="white"/>
</g>
<defs>
<clipPath id="clip0_26_3490">
<rect width="17.83" height="24" fill="white" transform="matrix(1 0 0 -1 0 24)"/>
</clipPath>
</defs>
</svg>
