<svg width="24" height="23" viewBox="0 0 24 23" fill="none" xmlns="http://www.w3.org/2000/svg">
<g clip-path="url(#clip0_32_3028)">
<path d="M9.82775 14.3764H9.18945V13.0541C9.18945 12.8425 9.01803 12.6711 8.80647 12.6711C8.59492 12.6711 8.4235 12.8425 8.4235 13.0541V14.3764H7.57303V11.5221C7.57303 11.3106 7.40161 11.1392 7.19005 11.1392C6.97849 11.1392 6.80707 11.3106 6.80707 11.5221V14.3764H5.95665V13.0541C5.95665 12.8425 5.78523 12.6711 5.57367 12.6711C5.36212 12.6711 5.1907 12.8425 5.1907 13.0541V14.3764H4.34018V11.5221C4.34018 11.3106 4.16875 11.1392 3.9572 11.1392C3.74564 11.1392 3.57422 11.3106 3.57422 11.5221V14.7593C3.57422 14.9708 3.74564 15.1423 3.9572 15.1423H9.82775C10.0393 15.1423 10.2107 14.9708 10.2107 14.7593C10.2107 14.5478 10.0393 14.3764 9.82775 14.3764Z" fill="white"/>
<path d="M9.82775 2.04248H3.9572C3.74564 2.04248 3.57422 2.21395 3.57422 2.42546C3.57422 2.63697 3.74564 2.80844 3.9572 2.80844H9.82775C10.0393 2.80844 10.2107 2.63697 10.2107 2.42546C10.2107 2.21395 10.0393 2.04248 9.82775 2.04248Z" fill="white"/>
<path d="M9.82775 3.86182H3.9572C3.74564 3.86182 3.57422 4.03329 3.57422 4.2448C3.57422 4.4563 3.74564 4.62777 3.9572 4.62777H9.82775C10.0393 4.62777 10.2107 4.4563 10.2107 4.2448C10.2107 4.03329 10.0393 3.86182 9.82775 3.86182Z" fill="white"/>
<path d="M3.9572 6.44711H6.89245C7.10401 6.44711 7.27543 6.27564 7.27543 6.06413C7.27543 5.85262 7.10401 5.68115 6.89245 5.68115H3.9572C3.74564 5.68115 3.57422 5.85262 3.57422 6.06413C3.57422 6.27564 3.74564 6.44711 3.9572 6.44711Z" fill="white"/>
<path d="M9.82775 7.50049H3.9572C3.74564 7.50049 3.57422 7.67196 3.57422 7.88347C3.57422 8.09497 3.74564 8.26645 3.9572 8.26645H9.82775C10.0393 8.26645 10.2107 8.09497 10.2107 7.88347C10.2107 7.67196 10.0393 7.50049 9.82775 7.50049Z" fill="white"/>
<path d="M9.82775 9.31982H3.9572C3.74564 9.31982 3.57422 9.4913 3.57422 9.7028C3.57422 9.91431 3.74564 10.0858 3.9572 10.0858H9.82775C10.0393 10.0858 10.2107 9.91431 10.2107 9.7028C10.2107 9.4913 10.0393 9.31982 9.82775 9.31982Z" fill="white"/>
<path d="M12.0002 2.31934C11.7886 2.31934 11.6172 2.49081 11.6172 2.70231V15.6137C11.6172 15.8252 11.7886 15.9967 12.0002 15.9967C12.2117 15.9967 12.3831 15.8252 12.3831 15.6137V2.70231C12.3831 2.49076 12.2117 2.31934 12.0002 2.31934Z" fill="white"/>
<path d="M23.617 3.06383H22.4681V0.382979C22.4681 0.171472 22.2967 0 22.0851 0H13.4672C12.9149 0 12.393 0.211149 12 0.580749C11.6069 0.211149 11.0851 0 10.5328 0H1.91489C1.70334 0 1.53191 0.171472 1.53191 0.382979V3.06383H0.382979C0.171421 3.06383 0 3.2353 0 3.44681V19.8656C0 20.0771 0.171421 20.2486 0.382979 20.2486H10.4598L10.8885 20.7487C10.9613 20.8335 11.0675 20.8823 11.1793 20.8823L12.8211 20.8822C12.9328 20.8822 13.0391 20.8333 13.1118 20.7484L13.5402 20.2485H15.6382V21.6509C15.6382 22.1999 16.085 22.6467 16.6341 22.6467H17.4511C18.0001 22.6467 18.4468 22.1999 18.4468 21.6509V20.2485H23.617C23.8286 20.2485 24 20.0771 24 19.8656V3.44681C24 3.2353 23.8286 3.06383 23.617 3.06383ZM17.6809 5.77011V18.6637H16.4043V5.77011H17.6809ZM16.4043 19.4297H17.6809V20.1956H16.4043V19.4297ZM16.5957 5.00415L17.0426 3.93181L17.4894 5.00415H16.5957ZM17.4512 21.8807H16.6341C16.5095 21.8807 16.4043 21.7755 16.4043 21.651V20.9616H17.6809V21.651C17.6809 21.7755 17.5757 21.8807 17.4512 21.8807ZM23.234 19.4826H18.4468V5.38713C18.4468 5.37437 18.4461 5.36165 18.4449 5.34899C18.4438 5.33842 18.4421 5.32805 18.4402 5.31774C18.4399 5.3158 18.4397 5.3138 18.4393 5.31186C18.434 5.28557 18.4261 5.26024 18.4158 5.23614L17.3961 2.7888C17.3367 2.64608 17.1972 2.55309 17.0426 2.55309C16.888 2.55309 16.7485 2.64603 16.6891 2.78875L15.6691 5.23634C15.6589 5.26034 15.651 5.28557 15.6457 5.31181C15.6453 5.31396 15.6451 5.3161 15.6447 5.31825C15.6429 5.32836 15.6412 5.33857 15.6401 5.34894C15.6389 5.3616 15.6382 5.37431 15.6382 5.38708V19.4826H13.4671C13.271 19.4826 13.0885 19.5757 12.973 19.7332L12.6447 20.1162L11.3552 20.1163L11.0267 19.7332C10.9111 19.5757 10.7285 19.4826 10.5326 19.4826H0.765957V3.82979H1.53191V16.8018C1.53191 17.0133 1.70334 17.1848 1.91489 17.1848H10.5328C10.9589 17.1848 11.3564 17.3805 11.617 17.7129V18.245C11.2933 18.0551 10.9207 17.9507 10.5328 17.9507H1.91489C1.70334 17.9507 1.53191 18.1222 1.53191 18.3337C1.53191 18.5452 1.70334 18.7167 1.91489 18.7167H10.5328C10.9953 18.7167 11.4246 18.947 11.6812 19.3327C11.6896 19.3452 11.6985 19.3568 11.708 19.368C11.7105 19.371 11.7132 19.3737 11.7158 19.3766C11.7229 19.3844 11.7302 19.392 11.7379 19.3993C11.7413 19.4025 11.7447 19.4056 11.7483 19.4086C11.7563 19.4157 11.7647 19.4224 11.7734 19.4288C11.7762 19.4309 11.779 19.4331 11.7819 19.4351C11.7939 19.4435 11.8063 19.4512 11.8192 19.4581C11.8318 19.4649 11.845 19.4708 11.8583 19.4762C11.8615 19.4774 11.8648 19.4785 11.868 19.4797C11.8785 19.4835 11.889 19.4869 11.8999 19.4898C11.9038 19.4909 11.9078 19.492 11.9118 19.4929C11.9225 19.4954 11.9333 19.4974 11.9443 19.499C11.9481 19.4996 11.9519 19.5003 11.9558 19.5008C11.9703 19.5024 11.9851 19.5035 12.0001 19.5035C12.0153 19.5035 12.0299 19.5024 12.0444 19.5008C12.0484 19.5003 12.0523 19.4995 12.0563 19.4989C12.0671 19.4973 12.0778 19.4954 12.0883 19.4929C12.0924 19.4919 12.0965 19.4909 12.1005 19.4897C12.1112 19.4868 12.1217 19.4835 12.1319 19.4797C12.1353 19.4784 12.1387 19.4773 12.142 19.476C12.1552 19.4707 12.1681 19.4649 12.1805 19.4583C12.194 19.4511 12.2063 19.4434 12.2182 19.4351C12.2213 19.4331 12.2241 19.4307 12.2271 19.4285C12.2357 19.4222 12.2439 19.4156 12.2518 19.4087C12.2554 19.4056 12.2589 19.4024 12.2624 19.3991C12.27 19.3919 12.2773 19.3845 12.2842 19.3767C12.2869 19.3738 12.2897 19.3709 12.2923 19.3678C12.3017 19.3567 12.3106 19.3452 12.3187 19.333C12.5755 18.9469 13.0047 18.7166 13.4673 18.7166H14.4895C14.7011 18.7166 14.8725 18.5452 14.8725 18.3337C14.8725 18.1221 14.7011 17.9507 14.4895 17.9507H13.4673C13.0794 17.9507 12.7069 18.055 12.3831 18.2449V17.7129C12.6437 17.3805 13.0412 17.1847 13.4673 17.1847H14.4895C14.7011 17.1847 14.8725 17.0132 14.8725 16.8017C14.8725 16.5902 14.7011 16.4188 14.4895 16.4188H13.4673C12.915 16.4188 12.3932 16.6297 12.0001 16.999C11.607 16.6298 11.0852 16.4188 10.533 16.4188H2.29787V0.765957H10.5328C10.9953 0.765957 11.4245 0.99646 11.6811 1.38255C11.752 1.48938 11.8717 1.55357 12 1.55357C12.1283 1.55357 12.248 1.48938 12.319 1.38255C12.5755 0.99646 13.0048 0.766009 13.4672 0.766009H21.7021V16.4189H19.5957C19.3842 16.4189 19.2128 16.5903 19.2128 16.8018C19.2128 17.0133 19.3842 17.1848 19.5957 17.1848H22.0851C22.2967 17.1848 22.4681 17.0133 22.4681 16.8018V3.82979H23.234V19.4826Z" fill="white"/>
<path d="M22.0852 17.9507H19.5959C19.3843 17.9507 19.2129 18.1222 19.2129 18.3337C19.2129 18.5452 19.3843 18.7166 19.5959 18.7166H22.0852C22.2968 18.7166 22.4682 18.5452 22.4682 18.3337C22.4682 18.1222 22.2968 17.9507 22.0852 17.9507Z" fill="white"/>
</g>
<defs>
<clipPath id="clip0_32_3028">
<rect width="24" height="22.6467" fill="white"/>
</clipPath>
</defs>
</svg>
