<svg width="36" height="36" viewBox="0 0 36 36" fill="none" xmlns="http://www.w3.org/2000/svg">
<rect width="36" height="36" rx="18" fill="#828282" fill-opacity="0.6"/>
<g clip-path="url(#clip0_17_4186)">
<path d="M24.5041 10.9612H28.4091V13.5646C28.4091 14.0968 28.3066 14.6036 28.1015 15.0849C27.8964 15.5663 27.6193 15.9815 27.2702 16.3307C26.921 16.6798 26.5058 16.957 26.0244 17.1621C25.543 17.3671 25.0363 17.4697 24.5041 17.4697C24.1007 17.4697 23.7108 17.4087 23.3346 17.2866C22.86 17.9646 22.2744 18.5349 21.5778 18.9976C20.8812 19.4604 20.121 19.7748 19.2973 19.9409V23.9782H20.599C21.0668 23.9782 21.5007 24.0951 21.9007 24.329C22.3007 24.5629 22.6176 24.8798 22.8515 25.2798C23.0854 25.6798 23.2024 26.1137 23.2024 26.5815H12.7888C12.7888 26.1137 12.9058 25.6798 13.1397 25.2798C13.3736 24.8798 13.6905 24.5629 14.0905 24.329C14.4905 24.0951 14.9244 23.9782 15.3922 23.9782H16.6939V19.9409C15.8702 19.7748 15.11 19.4604 14.4134 18.9976C13.7168 18.5349 13.1312 17.9646 12.6566 17.2866C12.2803 17.4087 11.8905 17.4697 11.4871 17.4697C10.9549 17.4697 10.4481 17.3671 9.96678 17.1621C9.48542 16.957 9.07017 16.6798 8.72101 16.3307C8.37186 15.9815 8.09474 15.5663 7.88966 15.0849C7.68457 14.6036 7.58203 14.0968 7.58203 13.5646V10.9612H11.4871V8.35781H24.5041V10.9612ZM11.4871 15.9188C11.6295 15.9188 11.7719 15.907 11.9142 15.8832C11.6295 15.1307 11.4871 14.3578 11.4871 13.5646V12.2629H9.13288V13.5646C9.13288 13.8832 9.19474 14.1883 9.31847 14.4798C9.4422 14.7714 9.60915 15.0222 9.81932 15.2324C10.0295 15.4426 10.2803 15.6095 10.5719 15.7332C10.8634 15.857 11.1685 15.9188 11.4871 15.9188ZM26.8583 13.5646V12.2629H24.5041V13.5646C24.5041 14.3578 24.3617 15.1307 24.0769 15.8832C24.2193 15.907 24.3617 15.9188 24.5041 15.9188C24.8227 15.9188 25.1278 15.857 25.4193 15.7332C25.7108 15.6095 25.9617 15.4426 26.1719 15.2324C26.382 15.0222 26.549 14.7714 26.6727 14.4798C26.7964 14.1883 26.8583 13.8832 26.8583 13.5646Z" fill="white"/>
</g>
<defs>
<clipPath id="clip0_17_4186">
<rect width="21.59" height="21" fill="white" transform="matrix(1 0 0 -1 7.2002 28)"/>
</clipPath>
</defs>
</svg>
