<svg width="26" height="27" viewBox="0 0 26 27" fill="none" xmlns="http://www.w3.org/2000/svg">
<g clip-path="url(#clip0_26_3052)">
<path d="M20.1858 4.57624C20.4648 4.57624 20.747 4.55445 21.0324 4.51087C21.3179 4.46729 21.587 4.41172 21.8398 4.34416C22.0926 4.27661 22.3519 4.18944 22.6178 4.08266C22.8837 3.97588 23.1255 3.87019 23.3435 3.76559C23.5614 3.66099 23.7902 3.54005 24.0299 3.40276C24.2696 3.26547 24.4755 3.14235 24.6477 3.03339C24.8199 2.92443 25.0062 2.80239 25.2067 2.66729V18.2462C25.0062 18.3813 24.8199 18.5034 24.6477 18.6123C24.4755 18.7213 24.2696 18.8444 24.0299 18.9817C23.7902 19.119 23.5614 19.2399 23.3435 19.3445C23.1255 19.4491 22.8837 19.5548 22.6178 19.6616C22.3519 19.7684 22.0926 19.8555 21.8398 19.9231C21.587 19.9907 21.3179 20.0462 21.0324 20.0898C20.747 20.1334 20.4648 20.1552 20.1858 20.1552C19.2226 20.1552 18.3052 20.0266 17.4335 19.7695C16.5619 19.5123 15.8057 19.1691 15.165 18.7398C14.5243 18.3105 13.7682 17.9673 12.8965 17.7101C12.0248 17.453 11.1074 17.3244 10.1442 17.3244C9.76065 17.3244 9.3684 17.3626 8.96743 17.4388C8.56646 17.5151 8.20036 17.6121 7.86912 17.7298C7.53789 17.8474 7.19576 17.9923 6.84273 18.1645C6.48971 18.3367 6.18462 18.499 5.92748 18.6515C5.67034 18.8041 5.4023 18.9741 5.12336 19.1615V3.58908C5.4023 3.40167 5.67034 3.2306 5.92748 3.07588C6.18462 2.92116 6.48971 2.75772 6.84273 2.58557C7.19576 2.41341 7.53789 2.26959 7.86912 2.15409C8.20036 2.03859 8.56646 1.94162 8.96743 1.86317C9.3684 1.78472 9.76065 1.74549 10.1442 1.74549C11.1074 1.74549 12.0248 1.87407 12.8965 2.13121C13.7682 2.38835 14.5243 2.73157 15.165 3.16087C15.8057 3.59017 16.5619 3.93339 17.4335 4.19053C18.3052 4.44767 19.2226 4.57624 20.1858 4.57624ZM0.592854 0.562201C0.592854 0.562201 0.674573 0.480482 0.838011 0.317043C1.00145 0.153605 1.31416 0.0718861 1.77615 0.0718861C2.23813 0.0718861 2.63256 0.235325 2.95944 0.562201C3.28632 0.889078 3.44975 1.28351 3.44975 1.74549V26.8496H0.102539V1.74549C0.102539 1.28351 0.265977 0.889078 0.592854 0.562201Z" fill="white"/>
</g>
<defs>
<clipPath id="clip0_26_3052">
<rect width="25.31" height="27" fill="white" transform="matrix(1 0 0 -1 0 27)"/>
</clipPath>
</defs>
</svg>
