<svg width="18" height="18" viewBox="0 0 18 18" fill="none" xmlns="http://www.w3.org/2000/svg">
<g clip-path="url(#clip0_17_4059)">
<path d="M9.32895 0.530273C4.65716 0.530273 0.874023 4.32483 0.874023 9.00027C0.874023 13.6757 4.65716 17.4703 9.32895 17.4703C14.0092 17.4703 17.8008 13.6757 17.8008 9.00027C17.8008 4.32483 14.0092 0.530273 9.32895 0.530273ZM9.33741 15.7763C5.5966 15.7763 2.5667 12.744 2.5667 9.00027C2.5667 5.25653 5.5966 2.22427 9.33741 2.22427C13.0782 2.22427 16.1082 5.25653 16.1082 9.00027C16.1082 12.744 13.0782 15.7763 9.33741 15.7763Z" fill="#271A38"/>
<path d="M9.76072 4.7666H8.49121V9.8486L12.9345 12.5166L13.5693 11.4748L9.76072 9.21335V4.7666Z" fill="#271A38"/>
</g>
<defs>
<clipPath id="clip0_17_4059">
<rect width="17.9988" height="16.94" fill="white" transform="translate(0.000976562 0.530273)"/>
</clipPath>
</defs>
</svg>
