<svg width="172" height="44" viewBox="0 0 172 44" fill="none" xmlns="http://www.w3.org/2000/svg">
<g id="Clip path group">
<mask id="mask0_133_3153" style="mask-type:luminance" maskUnits="userSpaceOnUse" x="0" y="0" width="172" height="44">
<g id="clip0_2_7">
<path id="Vector" d="M171.94 0.90332H0V43.0971H171.94V0.90332Z" fill="white"/>
</g>
</mask>
<g mask="url(#mask0_133_3153)">
<g id="Group">
<path id="Vector_2" d="M31.6453 21.2312C31.6453 21.0689 31.6424 20.9064 31.6364 20.7441V0.90332H0V27.0822V27.3892C0 36.0506 7.0967 43.0971 15.8197 43.0971C24.4386 43.0971 31.4699 36.2158 31.6333 27.6991H31.6364V27.3922V27.0851V21.5412H31.6453V21.2312ZM28.5355 20.9241C28.369 14.1049 22.735 8.60524 15.8256 8.60524C8.91623 8.60524 3.28226 14.1049 3.11577 20.9241H0.633263C0.796781 12.744 7.55159 6.14027 15.8286 6.14027C24.0521 6.14027 30.7682 12.6583 31.018 20.7648V20.9241H28.5355ZM25.4405 20.9241H25.4346C25.2711 15.8024 21.0256 11.6843 15.8256 11.6843C10.6287 11.6843 6.38318 15.8024 6.21667 20.9241H6.20776H3.73119C3.8977 14.4445 9.25813 9.22222 15.8227 9.22222C22.3901 9.22222 27.7507 14.4445 27.9142 20.9241H25.4405ZM31.0061 27.9265C31.0032 27.9914 31.0032 28.0593 30.9973 28.1241C30.9943 28.1862 30.9912 28.2512 30.9853 28.3131C30.9823 28.3781 30.9763 28.4431 30.9734 28.508C30.9675 28.57 30.9615 28.635 30.9585 28.697C30.9525 28.7589 30.9467 28.8239 30.9407 28.8859C30.9348 28.9507 30.9258 29.0127 30.9199 29.0778C30.914 29.1397 30.905 29.2017 30.8991 29.2607C30.8902 29.3258 30.8812 29.3906 30.8723 29.4526C30.8633 29.5118 30.8545 29.5737 30.8456 29.6327C30.8367 29.6977 30.8247 29.7626 30.8158 29.8276C30.8069 29.8866 30.798 29.9457 30.7861 30.0046C30.7742 30.0697 30.7623 30.1346 30.7503 30.1995C30.7386 30.2586 30.7296 30.3147 30.7177 30.3738C30.7058 30.4386 30.691 30.5036 30.6762 30.5686C30.6642 30.6246 30.6523 30.6807 30.6404 30.7368C30.6256 30.8017 30.6107 30.8667 30.5928 30.9316C30.578 30.9877 30.5661 31.0408 30.5512 31.097C30.5334 31.1619 30.5156 31.2268 30.5007 31.2917C30.4858 31.345 30.4709 31.4011 30.4561 31.4542C30.4383 31.5191 30.4175 31.584 30.3997 31.649C30.3847 31.7021 30.3669 31.7553 30.352 31.8085C30.3312 31.8733 30.3104 31.9382 30.2896 32.0033C30.2719 32.0563 30.2569 32.1066 30.2391 32.1568C30.2182 32.2217 30.1945 32.2867 30.1706 32.3516C30.1529 32.4018 30.135 32.4519 30.1172 32.5051C30.0933 32.57 30.0695 32.6351 30.0459 32.697C30.0279 32.7472 30.0072 32.7974 29.9893 32.8476C29.9656 32.9124 29.9388 32.9775 29.9119 33.0395C29.8912 33.0896 29.8734 33.1368 29.8526 33.187C29.8258 33.252 29.7991 33.3139 29.7693 33.3789C29.7485 33.4262 29.7277 33.4735 29.7068 33.5236C29.6772 33.5856 29.6504 33.6505 29.6206 33.7124C29.5999 33.7597 29.576 33.8069 29.5553 33.8542C29.5255 33.9161 29.4957 33.9782 29.463 34.0431C29.4393 34.0904 29.4155 34.1346 29.3947 34.1819C29.362 34.2439 29.3323 34.3058 29.2995 34.3648C29.2759 34.4121 29.252 34.4564 29.2253 34.5036C29.1956 34.5596 29.1629 34.6159 29.1331 34.6749L16.9792 27.7079H31.015C31.015 27.7227 31.015 27.7346 31.015 27.7493C31.0121 27.8025 31.009 27.8645 31.0061 27.9265ZM28.6752 35.4335C28.6366 35.4926 28.601 35.5515 28.5622 35.6077C28.5355 35.649 28.5057 35.6933 28.479 35.7347C28.4404 35.7936 28.4017 35.8497 28.3601 35.9089C28.3304 35.9501 28.3006 35.9914 28.2739 36.0328C28.2323 36.0889 28.1936 36.145 28.152 36.204C28.1223 36.2453 28.0925 36.2867 28.0627 36.328C28.0212 36.384 27.9795 36.4401 27.9378 36.4962C27.9083 36.5376 27.8755 36.576 27.8458 36.6173C27.8041 36.6734 27.7595 36.7265 27.7179 36.7797C27.6852 36.818 27.6525 36.8594 27.6227 36.8978C27.5781 36.9509 27.5335 37.004 27.489 37.0572C27.4562 37.0956 27.4235 37.1339 27.3909 37.1753C27.3463 37.2283 27.3016 37.2815 27.2541 37.3317C27.2214 37.3701 27.1857 37.4084 27.1531 37.4468C27.1054 37.497 27.0608 37.5502 27.0133 37.6004C26.9776 37.6387 26.9449 37.6741 26.9091 37.7125C26.8617 37.7627 26.8141 37.8129 26.7666 37.863C26.7308 37.8985 26.6951 37.9369 26.6595 37.9723C26.6119 38.0225 26.5614 38.0697 26.5138 38.1199C26.4782 38.1553 26.4395 38.1908 26.4038 38.2262C26.3533 38.2733 26.3056 38.3206 26.2551 38.3679C26.2164 38.4033 26.1808 38.4388 26.1422 38.4711C26.0917 38.5184 26.0411 38.5627 25.9906 38.61C25.9519 38.6454 25.9133 38.6779 25.8746 38.7132C25.824 38.7575 25.7706 38.8048 25.7201 38.8491C25.6813 38.8845 25.6398 38.9169 25.5981 38.9494C25.5446 38.9937 25.494 39.0351 25.4405 39.0793C25.399 39.1117 25.3573 39.1443 25.3187 39.1768C25.265 39.218 25.2116 39.2624 25.1581 39.3036C25.1165 39.3361 25.0748 39.3686 25.0333 39.3981C24.9796 39.4395 24.9262 39.4808 24.8698 39.5191C24.8281 39.5516 24.7834 39.5812 24.7418 39.6136C24.6883 39.652 24.6319 39.6933 24.5753 39.7317C24.5308 39.7612 24.4862 39.7937 24.4416 39.8233C24.3852 39.8616 24.3315 39.8999 24.2751 39.9354C24.2305 39.965 24.1858 39.9944 24.1412 40.024C24.0848 40.0594 24.0283 40.0978 23.9718 40.1332C23.9272 40.1627 23.8797 40.1893 23.8351 40.2189C23.7906 40.2454 23.7459 40.275 23.7012 40.3015L16.6849 28.2335L28.8387 35.2003C28.8179 35.2357 28.7972 35.2683 28.7763 35.3036C28.7288 35.3449 28.702 35.3892 28.6752 35.4335ZM22.8659 40.7591C22.8064 40.7885 22.75 40.8211 22.6904 40.8505C22.6399 40.8772 22.5894 40.9007 22.5388 40.9244C22.4794 40.9538 22.4198 40.9834 22.3605 41.01C22.3099 41.0336 22.2593 41.0573 22.2058 41.0808C22.1464 41.1075 22.0869 41.1368 22.0275 41.1635C21.9739 41.187 21.9233 41.2078 21.8699 41.2314C21.8104 41.258 21.751 41.2845 21.6915 41.3082C21.638 41.3318 21.5845 41.3523 21.5309 41.373C21.4715 41.3966 21.412 41.4232 21.3496 41.4468C21.296 41.4676 21.2396 41.4882 21.1862 41.5089C21.1266 41.5325 21.0642 41.553 21.0047 41.5767C20.9483 41.5974 20.8946 41.6151 20.8382 41.6358C20.7787 41.6565 20.7163 41.6771 20.6569 41.6979C20.6004 41.7156 20.544 41.7332 20.4874 41.7539C20.4279 41.7745 20.3655 41.7922 20.3061 41.8129C20.2495 41.8306 20.1902 41.8484 20.1306 41.8631C20.0712 41.8808 20.0087 41.8986 19.9493 41.9163C19.8898 41.934 19.8304 41.9488 19.7709 41.9634C19.7115 41.9811 19.649 41.9959 19.5866 42.0137C19.527 42.0284 19.4647 42.0431 19.4052 42.058C19.3458 42.0727 19.2833 42.0874 19.2239 42.1023C19.1614 42.117 19.0991 42.1288 19.0366 42.1435C18.977 42.1554 18.9146 42.1702 18.8552 42.1819C18.7928 42.1937 18.7303 42.2055 18.665 42.2173C18.6054 42.2291 18.546 42.2409 18.4835 42.2528C18.4182 42.2646 18.3558 42.2734 18.2902 42.2852C18.2309 42.2942 18.1713 42.306 18.1089 42.3148C18.0435 42.3236 17.9782 42.3325 17.9098 42.3413C17.8502 42.3503 17.7908 42.3591 17.7314 42.365C17.663 42.3739 17.5946 42.3796 17.5262 42.3885C17.4697 42.3945 17.4103 42.4033 17.3538 42.4092C17.2824 42.4151 17.2081 42.421 17.1368 42.4299C17.0832 42.4358 17.0268 42.4387 16.9732 42.4447C16.896 42.4506 16.8216 42.4535 16.7443 42.4594C16.6937 42.4624 16.6403 42.4653 16.5898 42.4683C16.5095 42.4712 16.4263 42.4742 16.346 42.4771C16.2984 42.4801 16.2508 42.4801 16.2032 42.483C16.1765 42.483 16.1497 42.483 16.1259 42.483V28.5463L23.1423 40.6144C23.0977 40.638 23.0532 40.6646 23.0086 40.6882C22.9639 40.7088 22.9134 40.7324 22.8659 40.7591ZM15.2875 42.4712C15.2072 42.4683 15.124 42.4653 15.0437 42.4624C14.9931 42.4594 14.9397 42.4565 14.8891 42.4535C14.8118 42.4476 14.7344 42.4447 14.6602 42.4387C14.6037 42.4358 14.5502 42.4299 14.4968 42.424C14.4253 42.4181 14.3509 42.4122 14.2796 42.4033C14.2202 42.3974 14.1637 42.3914 14.1072 42.3826C14.0388 42.3739 13.9704 42.368 13.9021 42.3591C13.8426 42.3532 13.7831 42.3413 13.7236 42.3354C13.6583 42.3266 13.5899 42.3177 13.5244 42.3089C13.465 42.3001 13.4056 42.2882 13.3432 42.2793C13.2777 42.2675 13.2153 42.2587 13.1499 42.2469C13.0905 42.235 13.0309 42.2232 12.9685 42.2114C12.9061 42.1996 12.8407 42.1878 12.7783 42.176C12.7188 42.1643 12.6564 42.1495 12.5968 42.1376C12.5345 42.1259 12.472 42.1111 12.4097 42.0964C12.3501 42.0815 12.2876 42.0668 12.2282 42.0521C12.1687 42.0372 12.1063 42.0225 12.0468 42.0078C11.9844 41.9929 11.925 41.9752 11.8626 41.9577C11.803 41.9428 11.7436 41.9251 11.6841 41.9104C11.6218 41.8926 11.5622 41.8749 11.5028 41.8572C11.4433 41.8395 11.3868 41.8247 11.3273 41.807C11.265 41.7892 11.2055 41.7686 11.146 41.7481C11.0896 41.7303 11.033 41.7126 10.9766 41.6919C10.9141 41.6712 10.8547 41.6506 10.7952 41.6299C10.7388 41.6092 10.6853 41.5915 10.6287 41.5708C10.5692 41.5501 10.5068 41.5266 10.4473 41.503C10.3938 41.4823 10.3374 41.4617 10.2838 41.4409C10.2244 41.4174 10.1649 41.3937 10.1025 41.3671C10.049 41.3464 9.99545 41.3229 9.94194 41.3023C9.88247 41.2786 9.82301 41.252 9.76355 41.2255C9.71004 41.2018 9.65651 41.1812 9.60598 41.1576C9.54652 41.131 9.48705 41.1045 9.42759 41.0749C9.37705 41.0513 9.32651 41.0277 9.273 41.004C9.21353 40.9745 9.15407 40.9479 9.09461 40.9185C9.04406 40.8948 8.99353 40.8683 8.94298 40.8446C8.88352 40.8152 8.82703 40.7856 8.76756 40.7531C8.71703 40.7265 8.66946 40.703 8.61891 40.6764C8.57432 40.6527 8.52973 40.6292 8.48513 40.6025L15.5016 28.5345V42.4712C15.4748 42.4712 15.448 42.4712 15.4243 42.4712C15.3827 42.4771 15.3352 42.4742 15.2875 42.4712ZM7.6824 40.1332C7.62592 40.0978 7.56942 40.0594 7.51293 40.024C7.46835 39.9944 7.42375 39.965 7.37915 39.9354C7.32267 39.897 7.26915 39.8616 7.21266 39.8233C7.16806 39.7937 7.12347 39.7641 7.07887 39.7317C7.02238 39.6933 6.96886 39.652 6.91238 39.6136C6.87076 39.5841 6.82616 39.5516 6.78453 39.5191C6.73102 39.4779 6.67454 39.4366 6.62103 39.3981C6.5794 39.3656 6.53778 39.3361 6.49615 39.3036C6.44264 39.2624 6.38912 39.2211 6.3356 39.1768C6.29398 39.1443 6.25235 39.1117 6.21371 39.0793C6.16019 39.0351 6.10966 38.9937 6.05613 38.9494C6.01451 38.9169 5.97586 38.8815 5.93424 38.8491C5.88073 38.8048 5.83018 38.7605 5.77963 38.7132C5.74099 38.6779 5.70234 38.6454 5.66368 38.61C5.61315 38.5627 5.5626 38.5184 5.51207 38.4711C5.47342 38.4359 5.43774 38.4004 5.39909 38.3679C5.34855 38.3206 5.298 38.2733 5.25043 38.2262C5.21475 38.1908 5.17611 38.1553 5.14044 38.1199C5.08988 38.0726 5.04232 38.0225 4.99474 37.9723C4.95907 37.9369 4.9234 37.8985 4.88773 37.863C4.84015 37.8129 4.79259 37.7627 4.74501 37.7125C4.70934 37.6741 4.67366 37.6387 4.64095 37.6004C4.59339 37.5502 4.54879 37.5 4.50122 37.4468C4.46554 37.4084 4.43284 37.3701 4.40013 37.3317C4.35555 37.2785 4.30797 37.2283 4.26337 37.1753C4.23068 37.1368 4.19798 37.0985 4.16526 37.0572C4.12067 37.004 4.07607 36.9509 4.03148 36.8978C3.99878 36.8594 3.96607 36.818 3.93634 36.7797C3.89174 36.7265 3.85012 36.6704 3.80552 36.6173C3.77579 36.576 3.74309 36.5376 3.71335 36.4962C3.67173 36.4401 3.63012 36.384 3.58849 36.328C3.55876 36.2867 3.52903 36.2453 3.4993 36.204C3.45768 36.1479 3.41902 36.0918 3.3774 36.0328C3.34767 35.9914 3.31794 35.9501 3.29119 35.9089C3.25253 35.8528 3.21091 35.7936 3.17226 35.7347C3.14253 35.6933 3.11577 35.649 3.08902 35.6077C3.05037 35.5486 3.01171 35.4896 2.97604 35.4335C2.94928 35.3892 2.92253 35.3478 2.89576 35.3036C2.87495 35.2683 2.85414 35.2357 2.83333 35.2003L14.9872 28.2335L7.97078 40.3015C7.92619 40.275 7.8816 40.2483 7.837 40.2189C7.77456 40.1893 7.727 40.1597 7.6824 40.1332ZM2.33981 34.3589C2.3071 34.297 2.27439 34.235 2.24467 34.176C2.22088 34.1287 2.19709 34.0845 2.17628 34.0372C2.14655 33.9752 2.11385 33.9131 2.08412 33.8483C2.06033 33.801 2.03951 33.7538 2.0187 33.7065C1.98898 33.6446 1.95924 33.5797 1.9325 33.5176C1.91169 33.4704 1.89087 33.4202 1.87006 33.3729C1.84329 33.3109 1.81655 33.2461 1.78978 33.1841C1.76897 33.1339 1.74816 33.0866 1.73032 33.0365C1.70357 32.9715 1.67979 32.9095 1.65302 32.8446C1.63221 32.7944 1.61437 32.7442 1.59654 32.694C1.57275 32.6292 1.54896 32.5641 1.52519 32.5021C1.50734 32.4519 1.4895 32.4018 1.47167 32.3487C1.44788 32.2836 1.42707 32.2188 1.40329 32.1538C1.38545 32.1036 1.37057 32.0505 1.35274 32.0003C1.33193 31.9353 1.31112 31.8704 1.2903 31.8055C1.27545 31.7524 1.2576 31.6992 1.24275 31.646C1.2249 31.5811 1.20409 31.5161 1.18625 31.4512C1.17139 31.3981 1.15652 31.345 1.14165 31.2888C1.12382 31.2238 1.10598 31.159 1.09112 31.0941C1.07625 31.0379 1.06436 30.9848 1.04949 30.9287C1.03463 30.8637 1.01679 30.7987 1.00192 30.7339C0.990031 30.6778 0.978139 30.6216 0.966246 30.5656C0.951381 30.5007 0.93949 30.4357 0.924623 30.3708C0.912731 30.3147 0.900839 30.2557 0.89192 30.1965C0.880028 30.1317 0.868135 30.0667 0.856243 30.0017C0.847324 29.9427 0.835432 29.8837 0.826512 29.8246C0.81462 29.7597 0.805702 29.6947 0.796781 29.6298C0.787863 29.5707 0.778943 29.5087 0.770024 29.4497C0.761104 29.3847 0.752186 29.3199 0.743267 29.2578C0.734347 29.1958 0.728402 29.1338 0.722455 29.0748C0.716509 29.0098 0.70759 28.9478 0.701643 28.883C0.695697 28.821 0.689752 28.7559 0.683805 28.694C0.677859 28.632 0.671914 28.567 0.66894 28.5051C0.662993 28.4401 0.660021 28.3752 0.657047 28.3101C0.654075 28.2482 0.648129 28.1862 0.645155 28.1212C0.642182 28.0563 0.639209 27.9885 0.636236 27.9234C0.633263 27.8615 0.630291 27.7995 0.630291 27.7375C0.630291 27.7227 0.630291 27.7109 0.630291 27.6962H14.6661L2.51224 34.6631C2.47953 34.6069 2.44981 34.5508 2.42008 34.4919C2.39035 34.4505 2.36358 34.4032 2.33981 34.3589ZM6.21073 21.5382V27.0822H0.627317V21.5382H3.10983H6.21073ZM9.31462 21.5382H12.4156V27.0822H6.83211V21.5382H9.31462ZM24.8132 21.5382V27.0822H19.2387V21.5382H22.3395H24.8132ZM18.6173 21.5382V27.0822H13.034V21.5382H18.6173ZM13.0518 20.9241C13.2063 19.5396 14.3926 18.4591 15.8256 18.4591C17.2587 18.4591 18.4449 19.5396 18.5995 20.9241H13.0518ZM19.2387 20.9241H19.2239C19.0663 19.2003 17.6035 17.8452 15.8256 17.8452C14.0477 17.8452 12.585 19.2003 12.4274 20.9241H12.4126H9.93896C10.1025 17.8393 12.6801 15.3802 15.8256 15.3802C18.9711 15.3802 21.5488 17.8393 21.7123 20.9241H19.2387ZM24.8132 20.9241H22.3307C22.1672 17.4998 19.313 14.7632 15.8256 14.7632C12.3382 14.7632 9.48111 17.4998 9.32055 20.9241H6.83806C7.00156 16.1418 10.9706 12.3012 15.8286 12.3012C20.6836 12.3012 24.6526 16.1418 24.8132 20.9241ZM31.018 1.5203V16.8444C29.1004 10.3115 23.0174 5.5233 15.8286 5.5233C8.61891 5.5233 2.52116 10.3381 0.62137 16.8976V1.51735H31.018V1.5203ZM31.018 27.0822H25.4405V21.5382H28.5414H31.015V27.0822H31.018Z" fill="white"/>
<path id="Vector_3" d="M45.7666 18.4971C44.3397 18.4971 43.2277 18.216 42.4264 17.6498C41.6252 17.0836 41.2266 16.3788 41.2266 15.5354C41.2266 14.5337 41.7448 14.0309 42.7851 14.0309C42.801 15.4365 43.0642 16.4936 43.5744 17.2102C44.0846 17.9269 44.8698 18.2833 45.9222 18.2833C46.8429 18.2833 47.5923 18.018 48.1622 17.4874C48.7322 16.9568 49.0153 16.165 49.0153 15.1038C49.0153 14.4585 48.8957 13.9358 48.6565 13.536C48.4173 13.136 48.0348 12.7716 47.5086 12.451C46.9824 12.1302 46.2928 11.7739 45.4439 11.3859C44.9973 11.1721 44.539 10.9385 44.0726 10.689C43.6023 10.4396 43.1718 10.1386 42.7773 9.78626C42.3785 9.43386 42.0637 9.0102 41.8245 8.50735C41.5853 8.00449 41.4659 7.39869 41.4659 6.68203C41.4659 5.3952 41.8803 4.41325 42.7094 3.74014C43.5385 3.06703 44.6466 2.73047 46.0297 2.73047C46.8669 2.73047 47.6002 2.8453 48.2341 3.07495C48.8678 3.3046 49.3621 3.60552 49.7168 3.97771C50.0716 4.3499 50.247 4.75773 50.247 5.2012C50.247 5.61694 50.0875 5.9416 49.7726 6.17918C49.4538 6.41674 49.0432 6.53553 48.541 6.53553C48.541 5.34769 48.3456 4.45284 47.959 3.85102C47.5683 3.24917 46.9227 2.94824 46.0138 2.94824C45.1768 2.94824 44.511 3.1977 44.0129 3.70055C43.5145 4.2034 43.2675 4.93986 43.2675 5.9139C43.2675 6.61471 43.399 7.18093 43.6581 7.6125C43.9172 8.04409 44.3077 8.41232 44.826 8.7172C45.3441 9.02603 46.0098 9.36655 46.8151 9.73874C47.5365 10.0674 48.2021 10.4118 48.816 10.7682C49.4298 11.1246 49.9241 11.5799 50.2988 12.1302C50.6734 12.6807 50.8608 13.3933 50.8608 14.2684C50.8608 15.571 50.4182 16.6044 49.5294 17.3607C48.6327 18.1209 47.3809 18.4971 45.7666 18.4971Z" fill="white"/>
<path id="Vector_4" d="M56.6005 18.497C55.4884 18.497 54.6195 18.2159 53.9857 17.6496C53.352 17.0834 53.0331 16.3073 53.0331 15.3175C53.0331 14.2168 53.4396 13.3932 54.2567 12.8468C55.0699 12.3042 56.3055 12.0035 57.9637 11.944L59.7574 11.8807V10.2731C59.7574 9.46934 59.7136 8.81206 59.6259 8.29733C59.5382 7.78261 59.3509 7.39855 59.0639 7.14909C58.7769 6.89964 58.3344 6.77294 57.7444 6.77294C56.9074 6.77294 56.3734 7.0303 56.1341 7.54504C55.895 8.05977 55.7754 8.87147 55.7754 9.97219C55.1696 9.97219 54.7111 9.87321 54.4043 9.67128C54.0933 9.46934 53.9379 9.1407 53.9379 8.68141C53.9379 8.16668 54.1133 7.75489 54.468 7.44605C54.8228 7.13721 55.2891 6.91152 55.8751 6.76898C56.457 6.62644 57.1107 6.55518 57.8323 6.55518C59.1596 6.55518 60.148 6.83629 60.8057 7.39458C61.4634 7.95286 61.7903 8.91105 61.7903 10.2731V16.6954C61.7903 17.21 61.89 17.5703 62.0932 17.7684C62.2965 17.9702 62.6393 18.0694 63.1296 18.0694H63.1934V18.2832H59.9288V16.0262H59.889C59.6578 16.8855 59.2512 17.511 58.6653 17.907C58.0833 18.3029 57.3938 18.497 56.6005 18.497ZM57.0349 18.196C57.5691 18.196 58.0395 18.0614 58.4501 17.7882C58.8606 17.515 59.1834 17.1507 59.4107 16.6914C59.6418 16.2321 59.7574 15.7412 59.7574 15.2106V12.1183L58.3743 12.1816C57.1506 12.2369 56.3016 12.5181 55.8352 13.0209C55.3648 13.5238 55.1337 14.3673 55.1337 15.555C55.1297 17.317 55.7634 18.196 57.0349 18.196Z" fill="white"/>
<path id="Vector_5" d="M64.4081 18.2829V18.0691H64.6912C65.325 18.0691 65.7794 17.9385 66.0545 17.6811C66.3295 17.4237 66.465 17.0001 66.465 16.414V3.84668C66.465 3.24484 66.3295 2.81721 66.0545 2.5559C65.7794 2.29852 65.325 2.16786 64.6912 2.16786H64.4081V1.95801H68.4939V16.3072C68.4939 16.9367 68.6293 17.3881 68.9044 17.6612C69.1794 17.9345 69.6339 18.0691 70.2676 18.0691H70.5507V18.2829H64.4081Z" fill="white"/>
<path id="Vector_6" d="M71.3287 18.2832V18.0694H71.6117C72.2455 18.0694 72.6999 17.9387 72.975 17.6815C73.25 17.424 73.3856 17.0003 73.3856 16.4144V8.6617C73.3856 8.05987 73.25 7.63224 72.975 7.37092C72.6999 7.11355 72.2455 6.98288 71.6117 6.98288H71.548V6.76908H75.4184V16.3075C75.4184 16.937 75.5539 17.3884 75.8289 17.6616C76.1039 17.9348 76.5584 18.0694 77.1922 18.0694H77.4752V18.2832H71.3287ZM74.2904 4.70619C74.0153 4.70619 73.7881 4.61513 73.6088 4.43694C73.4293 4.25877 73.3376 3.94598 73.3376 3.50251C73.3376 3.04321 73.4293 2.73042 73.6088 2.55619C73.7881 2.38594 74.0153 2.29883 74.2904 2.29883C74.5495 2.29883 74.7727 2.38594 74.96 2.55619C75.1474 2.72645 75.2431 3.04321 75.2431 3.50251C75.2431 3.94598 75.1474 4.25877 74.96 4.43694C74.7727 4.61909 74.5495 4.70619 74.2904 4.70619Z" fill="white"/>
<path id="Vector_7" d="M78.3561 18.2831V18.0693H78.5275C79.1892 18.0693 79.6516 17.9267 79.9106 17.6376C80.1698 17.3526 80.3014 16.8379 80.3014 16.0896V8.91892C80.3014 8.19037 80.1778 7.68356 79.9346 7.40641C79.6875 7.12528 79.237 6.98671 78.5714 6.98671H78.4638V6.77289H82.3142V8.79222H82.3581C82.5455 8.13495 82.8244 7.64397 83.1912 7.3193C83.5579 6.99859 83.9565 6.78873 84.379 6.69766C84.8055 6.60659 85.1962 6.55908 85.5588 6.55908C86.8423 6.55908 87.799 6.89168 88.4248 7.55685C89.0505 8.22205 89.3655 9.29508 89.3655 10.768V16.0934C89.3655 16.8379 89.481 17.3526 89.7123 17.6417C89.9435 17.9267 90.37 18.0732 90.9878 18.0732H91.0954V18.287H87.3326V10.0355C87.3326 9.10502 87.1572 8.3448 86.8025 7.75879C86.4477 7.1728 85.8539 6.8798 85.0167 6.8798C84.3391 6.8798 83.805 7.05797 83.4184 7.41829C83.0277 7.77463 82.7527 8.2379 82.5853 8.80409C82.4179 9.3703 82.3382 9.96026 82.3382 10.5779V16.0934C82.3382 16.8379 82.4617 17.3526 82.7049 17.6417C82.948 17.9267 83.4023 18.0732 84.0681 18.0732H84.1757V18.287H78.3561V18.2831Z" fill="white"/>
<path id="Vector_8" d="M98.0111 18.497C96.3967 18.497 95.1371 17.9822 94.2363 16.9488C93.3356 15.9194 92.8851 14.4702 92.8851 12.6092C92.8851 10.6058 93.2997 9.09326 94.1288 8.07567C94.9577 7.05809 96.1416 6.55127 97.6843 6.55127C99.0834 6.55127 100.183 6.98285 100.981 7.84206C101.782 8.70127 102.18 9.98413 102.18 11.6867V12.2015H94.9777C94.9937 14.3911 95.2328 15.9551 95.7032 16.8855C96.1696 17.816 96.9628 18.2832 98.0709 18.2832C98.8801 18.2832 99.5577 18.0614 100.116 17.618C100.67 17.1746 101.028 16.5173 101.188 15.6423C101.359 15.6699 101.491 15.7571 101.579 15.8995C101.666 16.0422 101.71 16.1925 101.71 16.3509C101.71 16.636 101.575 16.9488 101.3 17.2854C101.024 17.622 100.618 17.9071 100.076 18.1445C99.5338 18.3782 98.8482 18.497 98.0111 18.497ZM94.9857 11.9916H100.004C100.004 10.1148 99.8247 8.7765 99.462 7.97669C99.1033 7.17687 98.4974 6.773 97.6444 6.773C96.7634 6.773 96.1216 7.17291 95.7071 7.97669C95.2966 8.7765 95.0574 10.1148 94.9857 11.9916Z" fill="white"/>
<path id="Vector_9" d="M108.63 18.2832V18.0694H108.912C109.547 18.0694 110.001 17.9387 110.277 17.6814C110.551 17.424 110.687 17.0003 110.687 16.4143V8.66167C110.687 8.05984 110.551 7.6322 110.277 7.37088C110.001 7.11352 109.547 6.98285 108.912 6.98285H108.849V6.76904H112.7V8.91508H112.744C112.843 8.54289 112.995 8.17862 113.197 7.81831C113.401 7.46196 113.704 7.16104 114.107 6.91554C114.51 6.67401 115.064 6.55127 115.772 6.55127C116.478 6.55127 117.029 6.68986 117.415 6.97097C117.806 7.25211 117.997 7.64013 117.997 8.14298C117.997 8.57457 117.841 8.93092 117.531 9.216C117.22 9.50108 116.706 9.64758 115.984 9.64758C115.984 8.76065 115.832 8.14693 115.53 7.81038C115.227 7.47383 114.888 7.30753 114.513 7.30753C114.095 7.30753 113.764 7.45403 113.517 7.74704C113.269 8.04004 113.09 8.42014 112.975 8.88736C112.859 9.35457 112.787 9.83368 112.76 10.3246C112.731 10.8196 112.716 11.275 112.716 11.6867V16.3035C112.716 16.933 112.851 17.3843 113.125 17.6576C113.401 17.9307 113.855 18.0654 114.49 18.0654H114.772V18.2792H108.63V18.2832Z" fill="white"/>
<path id="Vector_10" d="M124.522 18.497C122.963 18.497 121.739 18.0021 120.847 17.0161C119.954 16.0262 119.508 14.5256 119.508 12.5063C119.508 10.5028 119.938 9.01003 120.795 8.0281C121.652 7.04614 122.915 6.55518 124.59 6.55518C126.149 6.55518 127.372 7.04614 128.265 8.0281C129.157 9.01003 129.604 10.5028 129.604 12.5063C129.604 14.5256 129.17 16.0302 128.309 17.0161C127.44 18.0059 126.18 18.497 124.522 18.497ZM124.565 18.2832C125.618 18.2832 126.371 17.8397 126.826 16.9528C127.281 16.0659 127.508 14.5811 127.508 12.5063C127.508 10.4434 127.281 8.97441 126.826 8.09145C126.371 7.21243 125.609 6.76898 124.545 6.76898C123.478 6.76898 122.721 7.20849 122.275 8.09145C121.827 8.97045 121.605 10.4434 121.605 12.5063C121.605 14.5811 121.832 16.0659 122.285 16.9528C122.736 17.8397 123.498 18.2832 124.565 18.2832Z" fill="white"/>
<path id="Vector_11" d="M131.182 23.4383V23.2245C132.19 23.2245 133.009 23.1494 133.638 22.9987C134.264 22.8484 134.762 22.6108 135.128 22.2901C135.496 21.9693 135.807 21.5536 136.058 21.0429C136.309 20.536 136.572 19.9303 136.847 19.2295L132.112 8.16668C131.924 7.70738 131.74 7.39855 131.562 7.23224C131.382 7.06595 131.155 6.98677 130.88 6.98677H130.445V6.77295H135.635V6.98677H135.571C135.168 6.98677 134.846 7.04615 134.61 7.16889C134.372 7.29165 134.252 7.50941 134.252 7.82221C134.252 8.06769 134.339 8.39633 134.51 8.81207L136.372 13.3021C136.587 13.8327 136.818 14.4187 137.067 15.0641C137.309 15.7095 137.513 16.2757 137.672 16.7627C137.86 16.2044 138.038 15.6739 138.214 15.1749C138.385 14.6721 138.533 14.2365 138.649 13.8644L140.227 8.9467C140.358 8.55867 140.422 8.23796 140.422 7.98058C140.422 7.32331 139.949 6.99072 138.995 6.99072H138.087V6.77692H142.582V6.99072H142.412C141.877 6.99072 141.49 7.09763 141.255 7.31144C141.016 7.52524 140.781 7.97663 140.554 8.66558L137.397 18.3742C137.067 19.4037 136.74 20.2509 136.424 20.9082C136.106 21.5655 135.738 22.0803 135.321 22.4564C134.902 22.8286 134.38 23.0859 133.753 23.2286C133.128 23.371 132.339 23.4424 131.386 23.4424H131.182V23.4383Z" fill="white"/>
<path id="Vector_12" d="M147.226 18.497C146.114 18.497 145.245 18.2159 144.612 17.6496C143.978 17.0834 143.66 16.3073 143.66 15.3175C143.66 14.2168 144.065 13.3932 144.883 12.8468C145.696 12.3042 146.931 12.0035 148.59 11.944L150.383 11.8807V10.2731C150.383 9.46934 150.34 8.81206 150.252 8.29733C150.164 7.78261 149.976 7.39855 149.689 7.14909C149.402 6.89964 148.959 6.77294 148.37 6.77294C147.534 6.77294 146.999 7.0303 146.759 7.54504C146.521 8.05977 146.401 8.87147 146.401 9.97219C145.796 9.97219 145.337 9.87321 145.029 9.67128C144.72 9.46934 144.563 9.1407 144.563 8.68141C144.563 8.16668 144.739 7.75489 145.094 7.44605C145.448 7.13721 145.914 6.91152 146.501 6.76898C147.083 6.62644 147.736 6.55518 148.457 6.55518C149.786 6.55518 150.774 6.83629 151.431 7.39458C152.09 7.95286 152.417 8.91105 152.417 10.2731V16.6954C152.417 17.21 152.515 17.5703 152.72 17.7684C152.922 17.9702 153.265 18.0694 153.755 18.0694H153.819V18.2832H150.555V16.0262H150.511C150.279 16.8855 149.873 17.511 149.287 17.907C148.709 18.3029 148.02 18.497 147.226 18.497ZM147.66 18.196C148.195 18.196 148.666 18.0614 149.075 17.7882C149.486 17.515 149.809 17.1507 150.037 16.6914C150.268 16.2321 150.383 15.7412 150.383 15.2106V12.1183L149 12.1816C147.776 12.2369 146.927 12.5181 146.461 13.0209C145.99 13.5238 145.759 14.3673 145.759 15.555C145.755 17.317 146.389 18.196 147.66 18.196Z" fill="white"/>
<path id="Vector_13" d="M155.034 18.2829V18.0691H155.317C155.951 18.0691 156.405 17.9385 156.68 17.6811C156.955 17.4237 157.091 17.0001 157.091 16.414V3.84668C157.091 3.24484 156.955 2.81721 156.68 2.5559C156.405 2.29852 155.951 2.16786 155.317 2.16786H155.034V1.95801H159.12V16.3072C159.12 16.9367 159.255 17.3881 159.53 17.6612C159.806 17.9345 160.26 18.0691 160.893 18.0691H161.177V18.2829H155.034Z" fill="white"/>
<path id="Vector_14" d="M167.77 18.497C166.156 18.497 164.896 17.9822 163.995 16.9488C163.095 15.9194 162.644 14.4702 162.644 12.6092C162.644 10.6058 163.059 9.09326 163.888 8.07567C164.717 7.05809 165.9 6.55127 167.443 6.55127C168.843 6.55127 169.942 6.98285 170.739 7.84206C171.541 8.70127 171.94 9.98413 171.94 11.6867V12.2015H164.737C164.753 14.3911 164.991 15.9551 165.462 16.8855C165.928 17.816 166.722 18.2832 167.83 18.2832C168.639 18.2832 169.317 18.0614 169.875 17.618C170.429 17.1746 170.787 16.5173 170.947 15.6423C171.118 15.6699 171.249 15.7571 171.338 15.8995C171.425 16.0422 171.469 16.1925 171.469 16.3509C171.469 16.636 171.333 16.9488 171.059 17.2854C170.783 17.622 170.378 17.9071 169.835 18.1445C169.293 18.3782 168.607 18.497 167.77 18.497ZM164.74 11.9916H169.76C169.76 10.1148 169.58 8.7765 169.217 7.97669C168.859 7.17687 168.251 6.773 167.4 6.773C166.518 6.773 165.877 7.17291 165.462 7.97669C165.055 8.7765 164.817 10.1148 164.74 11.9916Z" fill="white"/>
<path id="Vector_15" d="M45.8104 26.2695C47.0501 26.2695 47.9749 26.5863 48.5768 27.2159C49.1826 27.8455 49.4855 28.8433 49.4855 30.2013V37.8907H48.5568L48.3177 35.9584H48.2738C47.8832 36.6037 47.4089 37.1225 46.8468 37.5145C46.2848 37.9065 45.4997 38.1045 44.4911 38.1045C43.4667 38.1045 42.6536 37.8313 42.0477 37.2888C41.4418 36.7464 41.1389 35.9504 41.1389 34.9051C41.1389 33.7727 41.5734 32.9057 42.4462 32.3078C43.3192 31.7059 44.5988 31.3694 46.2848 31.2981L48.2539 31.1912V30.3954C48.2539 29.263 48.0467 28.4672 47.628 28C47.2097 27.5366 46.5917 27.3029 45.7666 27.3029C45.2206 27.3029 44.6864 27.3782 44.1683 27.5287C43.65 27.6792 43.1359 27.897 42.6336 28.186L42.2231 27.1961C42.7413 26.9229 43.3033 26.7011 43.9091 26.531C44.5151 26.3607 45.1488 26.2695 45.8104 26.2695ZM48.2539 32.1335L46.4602 32.2206C45.105 32.2761 44.0926 32.5255 43.4229 32.9611C42.7532 33.3966 42.4184 34.0539 42.4184 34.925C42.4184 35.6258 42.6256 36.1603 43.0362 36.5246C43.4468 36.8889 44.0128 37.071 44.7343 37.071C45.8424 37.071 46.7073 36.7344 47.3291 36.0614C47.947 35.3882 48.2579 34.442 48.2579 33.2264V32.1335H48.2539Z" fill="white"/>
<path id="Vector_16" d="M57.2702 38.1042C55.6837 38.1042 54.4602 37.5933 53.5952 36.5679C52.7302 35.5423 52.2958 34.1011 52.2958 32.2402C52.2958 30.9651 52.515 29.8802 52.9535 28.9854C53.3918 28.0906 54.0017 27.4097 54.7789 26.9463C55.5562 26.4791 56.4651 26.2495 57.5053 26.2495C58.0236 26.2495 58.5139 26.301 58.9763 26.3999C59.4386 26.4989 59.8492 26.6375 60.2079 26.8077L59.8612 27.8808C59.0958 27.5244 58.2986 27.3422 57.4616 27.3422C56.2059 27.3422 55.2454 27.7778 54.5756 28.6529C53.906 29.5279 53.5713 30.7158 53.5713 32.2203C53.5713 33.6537 53.8702 34.8137 54.468 35.7007C55.0659 36.5877 55.9908 37.0311 57.2464 37.0311C57.7924 37.0311 58.3027 36.9756 58.769 36.8609C59.2353 36.746 59.6658 36.5956 60.0564 36.4094V37.5063C59.7097 37.6923 59.307 37.8389 58.8447 37.9457C58.3903 38.0527 57.8642 38.1042 57.2702 38.1042Z" fill="white"/>
<path id="Vector_17" d="M66.462 26.2695C67.7017 26.2695 68.6224 26.5863 69.2282 27.2159C69.8341 27.8455 70.1371 28.8433 70.1371 30.2013V37.8907H69.2083L68.9692 35.9584H68.9253C68.5346 36.6037 68.0603 37.1225 67.4983 37.5145C66.9363 37.9065 66.151 38.1045 65.1426 38.1045C64.1182 38.1045 63.3051 37.8313 62.6992 37.2888C62.0932 36.7464 61.7904 35.9504 61.7904 34.9051C61.7904 33.7727 62.2248 32.9057 63.0978 32.3078C63.9707 31.7059 65.2502 31.3694 66.9363 31.2981L68.9054 31.1912V30.3954C68.9054 29.263 68.698 28.4672 68.2796 28C67.861 27.5366 67.2432 27.3029 66.4182 27.3029C65.8721 27.3029 65.338 27.3782 64.8198 27.5287C64.3016 27.6792 63.7873 27.897 63.2852 28.186L62.8747 27.1961C63.3927 26.9229 63.9548 26.7011 64.5607 26.531C65.1666 26.3567 65.8004 26.2695 66.462 26.2695ZM68.9054 32.1335L67.1117 32.2206C65.7564 32.2761 64.744 32.5255 64.0743 32.9611C63.4047 33.3966 63.0699 34.0539 63.0699 34.925C63.0699 35.6258 63.2771 36.1603 63.6877 36.5246C64.0983 36.8889 64.6642 37.071 65.3857 37.071C66.4939 37.071 67.3588 36.7344 67.9807 36.0614C68.5985 35.3882 68.9094 34.442 68.9094 33.2264V32.1335H68.9054Z" fill="white"/>
<path id="Vector_18" d="M77.4475 38.1042C76.0045 38.1042 74.8964 37.6132 74.1192 36.6312C73.3418 35.6494 72.9512 34.208 72.9512 32.3036C72.9512 30.3278 73.3578 28.8231 74.1749 27.7937C74.9881 26.7643 76.1162 26.2455 77.5591 26.2455C78.4518 26.2455 79.1813 26.4514 79.7433 26.8673C80.3054 27.283 80.7319 27.8056 81.0188 28.4351H81.1065C81.0786 28.0906 81.0547 27.7106 81.0428 27.2948C81.0269 26.8791 81.0228 26.5149 81.0228 26.1981V21.5576H82.2545V37.8825H81.2581L81.0627 35.9066H81.015C80.7279 36.5085 80.2974 37.0233 79.7274 37.4548C79.1575 37.8904 78.4001 38.1042 77.4475 38.1042ZM77.6427 37.0549C78.8824 37.0549 79.7554 36.655 80.2575 35.8512C80.7637 35.0475 81.015 33.8953 81.015 32.3946V32.1808C81.015 30.6049 80.7598 29.3973 80.2456 28.5619C79.7354 27.7224 78.8784 27.3067 77.6826 27.3067C76.5585 27.3067 75.7016 27.7382 75.1076 28.6054C74.5178 29.4725 74.2228 30.7079 74.2228 32.3115C74.2228 33.8715 74.5057 35.0553 75.0677 35.8551C75.6299 36.651 76.4868 37.0549 77.6427 37.0549Z" fill="white"/>
<path id="Vector_19" d="M89.8797 26.2495C90.8004 26.2495 91.5816 26.4752 92.2154 26.9265C92.8492 27.3779 93.3235 27.9955 93.6424 28.7835C93.9612 29.5715 94.1168 30.4743 94.1168 31.4919V32.351H86.4198C86.4357 33.8557 86.7704 35.0117 87.4242 35.8196C88.0819 36.6272 89.0226 37.0351 90.2463 37.0351C90.9239 37.0351 91.5139 36.9796 92.0201 36.8648C92.5263 36.75 93.0724 36.548 93.6623 36.263V37.3795C93.1282 37.637 92.594 37.823 92.064 37.9378C91.5298 38.0527 90.912 38.1081 90.2025 38.1081C88.5721 38.1081 87.3246 37.5855 86.4516 36.5402C85.5787 35.4948 85.1443 34.0695 85.1443 32.2639C85.1443 31.1038 85.3315 30.0704 85.7063 29.1596C86.0809 28.249 86.619 27.5363 87.3165 27.0215C88.0182 26.5069 88.8712 26.2495 89.8797 26.2495ZM89.8797 27.2789C88.899 27.2789 88.1058 27.6313 87.5 28.3322C86.8942 29.033 86.5394 30.0308 86.4397 31.3176H92.8412C92.8253 30.1139 92.5821 29.1399 92.1078 28.3954C91.6334 27.6512 90.8881 27.2789 89.8797 27.2789Z" fill="white"/>
<path id="Vector_20" d="M108.391 26.2497C109.47 26.2497 110.312 26.5704 110.91 27.2157C111.507 27.8611 111.807 28.8787 111.807 30.2645V37.8904H110.595V30.3279C110.595 29.2984 110.384 28.5383 109.957 28.0512C109.531 27.5642 108.946 27.3226 108.195 27.3226C107.171 27.3226 106.386 27.6433 105.84 28.2768C105.294 28.9143 105.019 29.9003 105.019 31.2306V37.8904H103.807V30.3279C103.807 29.2984 103.592 28.5383 103.157 28.0512C102.723 27.5642 102.133 27.3226 101.383 27.3226C100.375 27.3226 99.5976 27.6553 99.0476 28.3205C98.5015 28.9856 98.2265 30.015 98.2265 31.4009V37.8865H97.0147V26.4594H97.9873L98.1827 28.265H98.2703C98.5453 27.7067 98.9559 27.2316 99.5019 26.8356C100.048 26.4436 100.742 26.2456 101.579 26.2456C102.372 26.2456 103.038 26.4238 103.58 26.7842C104.122 27.1404 104.504 27.679 104.736 28.3956H104.823C105.138 27.7067 105.605 27.1801 106.219 26.8078C106.832 26.4358 107.554 26.2497 108.391 26.2497Z" fill="white"/>
<path id="Vector_21" d="M113.473 26.4634H114.812L117.343 33.5746C117.574 34.2041 117.77 34.7664 117.925 35.2613C118.084 35.7562 118.208 36.1958 118.292 36.5838H118.355C118.443 36.2551 118.564 35.8314 118.723 35.3168C118.882 34.8019 119.069 34.2278 119.285 33.5983L121.772 26.4672H123.111L118.243 39.9374C117.885 40.9392 117.444 41.7153 116.925 42.2695C116.406 42.8198 115.713 43.0971 114.849 43.0971C114.573 43.0971 114.334 43.0772 114.123 43.0336C113.915 42.9901 113.717 42.9386 113.528 42.8833V41.8538C113.876 41.9805 114.262 42.0478 114.696 42.0478C115.274 42.0478 115.736 41.8618 116.092 41.4895C116.446 41.1173 116.765 40.551 117.051 39.7909L117.722 37.8587L113.473 26.4634Z" fill="white"/>
</g>
</g>
</g>
</svg>
