<svg width="32" height="40" viewBox="0 0 32 40" fill="none" xmlns="http://www.w3.org/2000/svg">
<path d="M31.8203 19.0731C31.8203 18.9208 31.8173 18.7683 31.8113 18.616V0H0.174988V24.5629V24.8509C0.174988 32.9777 7.27169 39.5892 15.9946 39.5892C24.6136 39.5892 31.6449 33.1327 31.8083 25.1417H31.8113V24.8537V24.5656V19.3639H31.8203V19.0731ZM28.7105 18.785C28.544 12.3866 22.91 7.22649 16.0006 7.22649C9.09121 7.22649 3.45724 12.3866 3.29076 18.785H0.808251C0.971769 11.1098 7.72657 4.91368 16.0036 4.91368C24.2271 4.91368 30.9432 11.0294 31.193 18.6355V18.785H28.7105ZM25.6155 18.785H25.6095C25.446 13.9794 21.2005 10.1155 16.0006 10.1155C10.8037 10.1155 6.55817 13.9794 6.39166 18.785H6.38275H3.90618C4.07268 12.7053 9.43311 7.80539 15.9977 7.80539C22.565 7.80539 27.9256 12.7053 28.0891 18.785H25.6155ZM31.1811 25.355C31.1782 25.416 31.1782 25.4797 31.1722 25.5405C31.1692 25.5987 31.1662 25.6598 31.1603 25.7179C31.1573 25.7788 31.1513 25.8398 31.1484 25.9007C31.1425 25.9588 31.1364 26.0198 31.1334 26.078C31.1275 26.1361 31.1217 26.1971 31.1157 26.2553C31.1098 26.3161 31.1008 26.3743 31.0948 26.4353C31.0889 26.4934 31.08 26.5516 31.0741 26.607C31.0652 26.668 31.0561 26.7288 31.0473 26.787C31.0383 26.8425 31.0295 26.9006 31.0206 26.956C31.0116 27.017 30.9997 27.0778 30.9908 27.1388C30.9819 27.1942 30.9729 27.2497 30.9611 27.3049C30.9492 27.366 30.9372 27.4269 30.9253 27.4878C30.9136 27.5432 30.9046 27.5958 30.8926 27.6513C30.8808 27.7121 30.866 27.7731 30.8511 27.8341C30.8392 27.8866 30.8273 27.9393 30.8153 27.9919C30.8006 28.0528 30.7857 28.1138 30.7678 28.1747C30.753 28.2274 30.7411 28.2772 30.7262 28.3298C30.7084 28.3908 30.6905 28.4517 30.6757 28.5126C30.6608 28.5625 30.6459 28.6152 30.6311 28.665C30.6132 28.7259 30.5925 28.7868 30.5746 28.8478C30.5597 28.8976 30.5419 28.9475 30.527 28.9975C30.5062 29.0583 30.4854 29.1192 30.4646 29.1802C30.4468 29.2299 30.4319 29.2771 30.414 29.3242C30.3932 29.3852 30.3694 29.4461 30.3456 29.507C30.3278 29.5541 30.31 29.6011 30.2921 29.6511C30.2683 29.712 30.2445 29.773 30.2209 29.8311C30.2029 29.8782 30.1822 29.9253 30.1643 29.9724C30.1406 30.0332 30.1138 30.0942 30.0869 30.1524C30.0662 30.1994 30.0483 30.2437 30.0276 30.2908C30.0008 30.3519 29.974 30.41 29.9443 30.4709C29.9235 30.5153 29.9027 30.5596 29.8818 30.6066C29.8521 30.6648 29.8254 30.7258 29.7956 30.7839C29.7748 30.8282 29.751 30.8725 29.7302 30.9169C29.7005 30.975 29.6707 31.0332 29.638 31.0941C29.6142 31.1385 29.5905 31.1799 29.5696 31.2243C29.537 31.2825 29.5073 31.3406 29.4745 31.396C29.4508 31.4404 29.427 31.4819 29.4003 31.5262C29.3705 31.5788 29.3379 31.6315 29.3081 31.6869L17.1541 25.15H31.19C31.19 25.1639 31.19 25.175 31.19 25.1888C31.1871 25.2387 31.184 25.2969 31.1811 25.355ZM28.8501 32.3987C28.8115 32.4542 28.776 32.5094 28.7372 32.5621C28.7105 32.6009 28.6807 32.6425 28.6539 32.6813C28.6154 32.7366 28.5767 32.7892 28.5351 32.8447C28.5054 32.8834 28.4756 32.9222 28.4488 32.961C28.4072 33.0137 28.3685 33.0663 28.3269 33.1216C28.2973 33.1604 28.2675 33.1992 28.2377 33.238C28.1962 33.2905 28.1545 33.3432 28.1128 33.3958C28.0832 33.4347 28.0504 33.4707 28.0208 33.5094C27.9791 33.5621 27.9345 33.6119 27.8928 33.6618C27.8602 33.6977 27.8275 33.7366 27.7977 33.7726C27.7531 33.8224 27.7085 33.8722 27.664 33.9221C27.6312 33.9582 27.5985 33.9942 27.5658 34.033C27.5213 34.0827 27.4766 34.1326 27.4291 34.1798C27.3964 34.2158 27.3607 34.2517 27.328 34.2877C27.2804 34.3348 27.2358 34.3847 27.1883 34.4318C27.1526 34.4677 27.1199 34.501 27.0841 34.537C27.0367 34.5841 26.9891 34.6312 26.9416 34.6782C26.9058 34.7115 26.8701 34.7475 26.8345 34.7808C26.7869 34.8279 26.7364 34.8722 26.6887 34.9193C26.6532 34.9525 26.6145 34.9858 26.5788 35.019C26.5282 35.0632 26.4806 35.1076 26.4301 35.152C26.3914 35.1852 26.3558 35.2185 26.3172 35.2488C26.2667 35.2932 26.2161 35.3347 26.1655 35.3791C26.1268 35.4123 26.0882 35.4428 26.0495 35.476C25.999 35.5175 25.9456 35.5619 25.8951 35.6034C25.8563 35.6366 25.8148 35.6671 25.7731 35.6976C25.7196 35.7391 25.669 35.7779 25.6155 35.8194C25.574 35.8499 25.5323 35.8804 25.4937 35.9109C25.44 35.9496 25.3866 35.9913 25.3331 36.0299C25.2915 36.0604 25.2497 36.0909 25.2082 36.1186C25.1546 36.1574 25.1012 36.1961 25.0447 36.2321C25.003 36.2626 24.9584 36.2903 24.9168 36.3208C24.8633 36.3568 24.8068 36.3955 24.7503 36.4315C24.7058 36.4593 24.6612 36.4897 24.6166 36.5175C24.5601 36.5535 24.5065 36.5894 24.4501 36.6227C24.4054 36.6504 24.3608 36.6781 24.3162 36.7058C24.2598 36.7391 24.2032 36.7751 24.1468 36.8083C24.1022 36.836 24.0547 36.8609 24.0101 36.8887C23.9656 36.9136 23.9208 36.9413 23.8762 36.9662L16.8599 25.6431L29.0136 32.1799C28.9929 32.2131 28.9721 32.2437 28.9513 32.2768C28.9038 32.3156 28.877 32.3571 28.8501 32.3987ZM23.0408 37.3955C22.9814 37.4231 22.925 37.4537 22.8654 37.4813C22.8149 37.5064 22.7643 37.5284 22.7138 37.5506C22.6544 37.5783 22.5948 37.606 22.5355 37.6309C22.4848 37.6531 22.4343 37.6753 22.3808 37.6974C22.3213 37.7224 22.2619 37.7499 22.2024 37.775C22.1489 37.797 22.0983 37.8165 22.0448 37.8387C21.9854 37.8636 21.926 37.8885 21.8665 37.9107C21.813 37.9329 21.7594 37.9522 21.7059 37.9715C21.6465 37.9937 21.587 38.0186 21.5245 38.0408C21.471 38.0603 21.4146 38.0797 21.3611 38.099C21.3016 38.1212 21.2391 38.1405 21.1797 38.1627C21.1233 38.1821 21.0696 38.1987 21.0132 38.2182C20.9537 38.2375 20.8913 38.2569 20.8319 38.2764C20.7754 38.293 20.7189 38.3095 20.6624 38.3289C20.6028 38.3483 20.5405 38.3649 20.481 38.3843C20.4245 38.4009 20.3652 38.4176 20.3056 38.4314C20.2462 38.448 20.1837 38.4647 20.1243 38.4813C20.0648 38.498 20.0054 38.5118 19.9459 38.5255C19.8865 38.5421 19.824 38.556 19.7615 38.5727C19.702 38.5865 19.6396 38.6003 19.5802 38.6142C19.5207 38.6281 19.4583 38.6419 19.3988 38.6558C19.3364 38.6696 19.274 38.6807 19.2116 38.6945C19.152 38.7056 19.0896 38.7196 19.0302 38.7305C18.9678 38.7416 18.9053 38.7526 18.84 38.7637C18.7804 38.7748 18.7209 38.7859 18.6585 38.797C18.5931 38.8081 18.5308 38.8164 18.4652 38.8275C18.4059 38.8358 18.3463 38.8469 18.2839 38.8552C18.2185 38.8635 18.1531 38.8719 18.0848 38.8801C18.0252 38.8885 17.9658 38.8968 17.9064 38.9023C17.8379 38.9107 17.7696 38.916 17.7012 38.9244C17.6447 38.93 17.5853 38.9382 17.5288 38.9438C17.4574 38.9493 17.3831 38.9549 17.3117 38.9632C17.2582 38.9688 17.2018 38.9715 17.1482 38.9771C17.0709 38.9826 16.9965 38.9853 16.9193 38.9909C16.8687 38.9937 16.8153 38.9964 16.7648 38.9992C16.6845 39.002 16.6013 39.0048 16.521 39.0075C16.4733 39.0103 16.4258 39.0103 16.3782 39.0131C16.3514 39.0131 16.3247 39.0131 16.3009 39.0131V25.9366L23.3173 37.2597C23.2727 37.2819 23.2282 37.3068 23.1836 37.329C23.1389 37.3484 23.0884 37.3705 23.0408 37.3955ZM15.4625 39.002C15.3822 38.9992 15.299 38.9964 15.2187 38.9937C15.1681 38.9909 15.1146 38.9881 15.0641 38.9853C14.9868 38.9798 14.9094 38.9771 14.8351 38.9715C14.7787 38.9688 14.7252 38.9632 14.6717 38.9577C14.6003 38.9521 14.5259 38.9466 14.4546 38.9382C14.3952 38.9327 14.3387 38.9271 14.2822 38.9189C14.2138 38.9107 14.1454 38.9051 14.0771 38.8968C14.0176 38.8912 13.9581 38.8801 13.8986 38.8746C13.8332 38.8663 13.7649 38.8579 13.6994 38.8497C13.64 38.8414 13.5806 38.8303 13.5182 38.8219C13.4527 38.8108 13.3902 38.8026 13.3249 38.7915C13.2654 38.7804 13.2059 38.7693 13.1435 38.7582C13.0811 38.7471 13.0157 38.7361 12.9533 38.725C12.8938 38.714 12.8313 38.7001 12.7718 38.689C12.7094 38.678 12.647 38.6641 12.5846 38.6503C12.5251 38.6363 12.4626 38.6225 12.4032 38.6087C12.3437 38.5948 12.2813 38.581 12.2218 38.5671C12.1594 38.5532 12.1 38.5366 12.0376 38.5201C11.978 38.5062 11.9186 38.4896 11.8591 38.4758C11.7968 38.4591 11.7372 38.4425 11.6778 38.4258C11.6183 38.4093 11.5618 38.3954 11.5023 38.3787C11.44 38.3621 11.3805 38.3427 11.321 38.3235C11.2645 38.3068 11.208 38.2902 11.1516 38.2708C11.0891 38.2513 11.0296 38.232 10.9702 38.2126C10.9138 38.1931 10.8602 38.1766 10.8037 38.1571C10.7442 38.1378 10.6818 38.1157 10.6223 38.0935C10.5688 38.0741 10.5123 38.0548 10.4588 38.0353C10.3994 38.0132 10.3399 37.991 10.2775 37.966C10.2239 37.9466 10.1704 37.9245 10.1169 37.9052C10.0575 37.883 9.99799 37.8581 9.93854 37.8332C9.88502 37.811 9.8315 37.7916 9.78096 37.7694C9.7215 37.7445 9.66203 37.7196 9.60258 37.6918C9.55203 37.6698 9.50149 37.6476 9.44798 37.6254C9.38851 37.5976 9.32905 37.5727 9.2696 37.5451C9.21905 37.5229 9.16851 37.498 9.11797 37.4758C9.05851 37.4482 9.00202 37.4204 8.94255 37.39C8.89201 37.3649 8.84444 37.343 8.7939 37.3179C8.74931 37.2958 8.70472 37.2737 8.66011 37.2486L15.6766 25.9255V39.002C15.6498 39.002 15.623 39.002 15.5993 39.002C15.5577 39.0075 15.5101 39.0048 15.4625 39.002ZM7.85739 36.8083C7.80091 36.7751 7.74441 36.7391 7.68792 36.7058C7.64334 36.6781 7.59873 36.6504 7.55413 36.6227C7.49765 36.5867 7.44414 36.5535 7.38765 36.5175C7.34305 36.4897 7.29845 36.462 7.25385 36.4315C7.19736 36.3955 7.14385 36.3568 7.08737 36.3208C7.04574 36.2931 7.00114 36.2626 6.95952 36.2321C6.906 36.1934 6.84952 36.1547 6.79601 36.1186C6.75439 36.0881 6.71276 36.0604 6.67114 36.0299C6.61763 35.9913 6.5641 35.9524 6.51059 35.9109C6.46896 35.8804 6.42734 35.8499 6.38869 35.8194C6.33518 35.7779 6.28464 35.7391 6.23112 35.6976C6.1895 35.6671 6.15085 35.6338 6.10923 35.6034C6.05571 35.5619 6.00517 35.5203 5.95462 35.476C5.91597 35.4428 5.87733 35.4123 5.83867 35.3791C5.78813 35.3347 5.73759 35.2932 5.68705 35.2488C5.64841 35.2157 5.61273 35.1824 5.57408 35.152C5.52353 35.1076 5.47299 35.0632 5.42542 35.019C5.38974 34.9858 5.35109 34.9525 5.31542 34.9193C5.26487 34.8749 5.21731 34.8279 5.16973 34.7808C5.13406 34.7475 5.09838 34.7115 5.06271 34.6782C5.01513 34.6312 4.96758 34.5841 4.92 34.537C4.88433 34.501 4.84865 34.4677 4.81594 34.4318C4.76838 34.3847 4.72378 34.3376 4.67621 34.2877C4.64053 34.2517 4.60783 34.2158 4.57512 34.1798C4.53053 34.1298 4.48296 34.0827 4.43835 34.033C4.40566 33.9969 4.37296 33.9609 4.34025 33.9221C4.29566 33.8722 4.25106 33.8224 4.20647 33.7726C4.17376 33.7366 4.14105 33.6977 4.11133 33.6618C4.06673 33.6119 4.0251 33.5592 3.98051 33.5094C3.95078 33.4707 3.91808 33.4347 3.88834 33.3958C3.84672 33.3432 3.8051 33.2905 3.76348 33.238C3.73375 33.1992 3.70402 33.1604 3.67429 33.1216C3.63266 33.069 3.59401 33.0164 3.55238 32.961C3.52266 32.9222 3.49292 32.8834 3.46618 32.8447C3.42752 32.7921 3.3859 32.7366 3.34725 32.6813C3.31752 32.6425 3.29076 32.6009 3.264 32.5621C3.22536 32.5067 3.1867 32.4513 3.15103 32.3987C3.12426 32.3571 3.09752 32.3183 3.07075 32.2768C3.04994 32.2437 3.02913 32.2131 3.00831 32.1799L15.1622 25.6431L8.14577 36.9662C8.10118 36.9413 8.05659 36.9163 8.01199 36.8887C7.94955 36.8609 7.90198 36.8332 7.85739 36.8083ZM2.51479 31.3905C2.48209 31.3324 2.44938 31.2742 2.41965 31.2188C2.39586 31.1744 2.37208 31.1329 2.35126 31.0886C2.32154 31.0304 2.28884 30.9722 2.2591 30.9113C2.23531 30.867 2.2145 30.8227 2.19369 30.7783C2.16397 30.7202 2.13423 30.6593 2.10749 30.6011C2.08667 30.5568 2.06586 30.5097 2.04505 30.4653C2.01828 30.4071 1.99154 30.3463 1.96477 30.2881C1.94396 30.241 1.92314 30.1966 1.90531 30.1496C1.87855 30.0887 1.85477 30.0305 1.82801 29.9696C1.8072 29.9225 1.78936 29.8754 1.77153 29.8283C1.74774 29.7674 1.72395 29.7064 1.70018 29.6482C1.68232 29.6011 1.66449 29.5541 1.64665 29.5043C1.62286 29.4433 1.60205 29.3824 1.57827 29.3214C1.56044 29.2743 1.54556 29.2245 1.52773 29.1774C1.50692 29.1165 1.4861 29.0555 1.46529 28.9946C1.45043 28.9448 1.43259 28.8949 1.41773 28.8449C1.39989 28.7841 1.37908 28.7231 1.36124 28.6622C1.34637 28.6124 1.33151 28.5625 1.31664 28.5099C1.29881 28.4488 1.28097 28.388 1.2661 28.3271C1.25124 28.2745 1.23935 28.2246 1.22448 28.172C1.20961 28.111 1.19178 28.05 1.17691 27.9892C1.16502 27.9366 1.15313 27.8838 1.14123 27.8313C1.12637 27.7703 1.11448 27.7094 1.09961 27.6485C1.08772 27.5958 1.07583 27.5405 1.06691 27.485C1.05502 27.4242 1.04312 27.3631 1.03123 27.3022C1.02231 27.2469 1.01042 27.1915 1.0015 27.136C0.989607 27.0751 0.980689 27.0142 0.971769 26.9532C0.962851 26.8978 0.95393 26.8397 0.945012 26.7843C0.936092 26.7233 0.927173 26.6624 0.918254 26.6042C0.909335 26.546 0.903389 26.4878 0.897442 26.4325C0.891496 26.3716 0.882577 26.3134 0.87663 26.2525C0.870684 26.1943 0.86474 26.1333 0.858793 26.0752C0.852847 26.017 0.846901 25.9561 0.843928 25.898C0.837981 25.837 0.835008 25.7761 0.832035 25.715C0.829063 25.6569 0.823117 25.5987 0.820142 25.5378C0.81717 25.4769 0.814196 25.4132 0.811224 25.3522C0.808251 25.2941 0.805278 25.2359 0.805278 25.1777C0.805278 25.1639 0.805278 25.1528 0.805278 25.139H14.8411L2.68722 31.6758C2.65452 31.6231 2.6248 31.5705 2.59506 31.5152C2.56534 31.4764 2.53857 31.432 2.51479 31.3905ZM6.38572 19.3611V24.5629H0.802305V19.3611H3.28481H6.38572ZM9.4896 19.3611H12.5905V24.5629H7.0071V19.3611H9.4896ZM24.9882 19.3611V24.5629H19.4137V19.3611H22.5145H24.9882ZM18.7923 19.3611V24.5629H13.209V19.3611H18.7923ZM13.2267 18.785C13.3813 17.4859 14.5676 16.4721 16.0006 16.4721C17.4336 16.4721 18.6199 17.4859 18.7745 18.785H13.2267ZM19.4137 18.785H19.3988C19.2413 17.1675 17.7785 15.8961 16.0006 15.8961C14.2227 15.8961 12.76 17.1675 12.6024 18.785H12.5875H10.1139C10.2775 15.8906 12.8551 13.5833 16.0006 13.5833C19.1461 13.5833 21.7237 15.8906 21.8873 18.785H19.4137ZM24.9882 18.785H22.5057C22.3422 15.572 19.488 13.0043 16.0006 13.0043C12.5131 13.0043 9.65609 15.572 9.49554 18.785H7.01304C7.17655 14.2978 11.1455 10.6943 16.0036 10.6943C20.8586 10.6943 24.8276 14.2978 24.9882 18.785ZM31.193 0.578895V14.9571C29.2754 8.82745 23.1924 4.33479 16.0036 4.33479C8.7939 4.33479 2.69614 8.85238 0.796358 15.007V0.576126H31.193V0.578895ZM31.193 24.5629H25.6155V19.3611H28.7164H31.19V24.5629H31.193Z" fill="white"/>
</svg>
