<svg width="16" height="22" viewBox="0 0 16 22" fill="none" xmlns="http://www.w3.org/2000/svg">
<path d="M8 16V21M1 16H15V14.24C14.9998 13.8679 14.8958 13.5033 14.6997 13.187C14.5036 12.8708 14.2232 12.6156 13.89 12.45L12.11 11.55C11.7768 11.3844 11.4964 11.1292 11.3003 10.813C11.1042 10.4967 11.0002 10.1321 11 9.76V5H12C12.5304 5 13.0391 4.78929 13.4142 4.41421C13.7893 4.03914 14 3.53043 14 3C14 2.46957 13.7893 1.96086 13.4142 1.58579C13.0391 1.21071 12.5304 1 12 1H4C3.46957 1 2.96086 1.21071 2.58579 1.58579C2.21071 1.96086 2 2.46957 2 3C2 3.53043 2.21071 4.03914 2.58579 4.41421C2.96086 4.78929 3.46957 5 4 5H5V9.76C4.9998 10.1321 4.89581 10.4967 4.69972 10.813C4.50363 11.1292 4.22321 11.3844 3.89 11.55L2.11 12.45C1.77679 12.6156 1.49637 12.8708 1.30028 13.187C1.10419 13.5033 1.0002 13.8679 1 14.24V16Z" stroke="black" stroke-width="2" stroke-linecap="round" stroke-linejoin="round"/>
</svg>
