<svg width="272" height="18" viewBox="0 0 272 18" fill="none" xmlns="http://www.w3.org/2000/svg">
<mask id="path-1-inside-1_21_2866" fill="white">
<path d="M0 0H10.83V18H0V0Z"/>
</mask>
<path d="M0 0H10.83V18H0V0Z" fill="#ECECEC"/>
<path d="M10.83 15H0V21H10.83V15Z" fill="black" fill-opacity="0.25" mask="url(#path-1-inside-1_21_2866)"/>
<mask id="path-3-inside-2_21_2866" fill="white">
<path d="M10.8301 0H21.6601V18H10.8301V0Z"/>
</mask>
<path d="M10.8301 0H21.6601V18H10.8301V0Z" fill="#ECECEC"/>
<path d="M21.6601 15H10.8301V21H21.6601V15Z" fill="black" fill-opacity="0.25" mask="url(#path-3-inside-2_21_2866)"/>
<mask id="path-5-inside-3_21_2866" fill="white">
<path d="M21.6602 0H32.4902V18H21.6602V0Z"/>
</mask>
<path d="M21.6602 0H32.4902V18H21.6602V0Z" fill="#ECECEC"/>
<path d="M32.4902 15H21.6602V21H32.4902V15Z" fill="black" fill-opacity="0.25" mask="url(#path-5-inside-3_21_2866)"/>
<mask id="path-7-inside-4_21_2866" fill="white">
<path d="M32.4902 0H43.3202V18H32.4902V0Z"/>
</mask>
<path d="M32.4902 0H43.3202V18H32.4902V0Z" fill="#ECECEC"/>
<path d="M43.3202 15H32.4902V21H43.3202V15Z" fill="black" fill-opacity="0.25" mask="url(#path-7-inside-4_21_2866)"/>
<mask id="path-9-inside-5_21_2866" fill="white">
<path d="M43.3203 0H54.1503V18H43.3203V0Z"/>
</mask>
<path d="M43.3203 0H54.1503V18H43.3203V0Z" fill="#ECECEC"/>
<path d="M54.1503 15H43.3203V21H54.1503V15Z" fill="black" fill-opacity="0.25" mask="url(#path-9-inside-5_21_2866)"/>
<mask id="path-11-inside-6_21_2866" fill="white">
<path d="M54.1504 0H64.9804V18H54.1504V0Z"/>
</mask>
<path d="M54.1504 0H64.9804V18H54.1504V0Z" fill="#ECECEC"/>
<path d="M64.9804 15H54.1504V21H64.9804V15Z" fill="black" fill-opacity="0.25" mask="url(#path-11-inside-6_21_2866)"/>
<mask id="path-13-inside-7_21_2866" fill="white">
<path d="M64.9805 0H75.8105V18H64.9805V0Z"/>
</mask>
<path d="M64.9805 0H75.8105V18H64.9805V0Z" fill="#ECECEC"/>
<path d="M75.8105 15H64.9805V21H75.8105V15Z" fill="black" fill-opacity="0.25" mask="url(#path-13-inside-7_21_2866)"/>
<mask id="path-15-inside-8_21_2866" fill="white">
<path d="M75.8096 0H86.6396V18H75.8096V0Z"/>
</mask>
<path d="M75.8096 0H86.6396V18H75.8096V0Z" fill="#ECECEC"/>
<path d="M86.6396 15H75.8096V21H86.6396V15Z" fill="black" fill-opacity="0.25" mask="url(#path-15-inside-8_21_2866)"/>
<mask id="path-17-inside-9_21_2866" fill="white">
<path d="M86.6396 0H97.4696V18H86.6396V0Z"/>
</mask>
<path d="M86.6396 0H97.4696V18H86.6396V0Z" fill="#ECECEC"/>
<path d="M97.4696 15H86.6396V21H97.4696V15Z" fill="black" fill-opacity="0.25" mask="url(#path-17-inside-9_21_2866)"/>
<mask id="path-19-inside-10_21_2866" fill="white">
<path d="M97.4697 0H108.3V18H97.4697V0Z"/>
</mask>
<path d="M97.4697 0H108.3V18H97.4697V0Z" fill="#ECECEC"/>
<path d="M108.3 15H97.4697V21H108.3V15Z" fill="black" fill-opacity="0.25" mask="url(#path-19-inside-10_21_2866)"/>
<mask id="path-21-inside-11_21_2866" fill="white">
<path d="M108.3 0H119.13V18H108.3V0Z"/>
</mask>
<path d="M108.3 0H119.13V18H108.3V0Z" fill="#ECECEC"/>
<path d="M119.13 15H108.3V21H119.13V15Z" fill="black" fill-opacity="0.25" mask="url(#path-21-inside-11_21_2866)"/>
<mask id="path-23-inside-12_21_2866" fill="white">
<path d="M119.13 0H129.96V18H119.13V0Z"/>
</mask>
<path d="M119.13 0H129.96V18H119.13V0Z" fill="#ECECEC"/>
<path d="M129.96 15H119.13V21H129.96V15Z" fill="black" fill-opacity="0.25" mask="url(#path-23-inside-12_21_2866)"/>
<mask id="path-25-inside-13_21_2866" fill="white">
<path d="M129.96 0H140.79V18H129.96V0Z"/>
</mask>
<path d="M129.96 0H140.79V18H129.96V0Z" fill="#ECECEC"/>
<path d="M140.79 15H129.96V21H140.79V15Z" fill="black" fill-opacity="0.25" mask="url(#path-25-inside-13_21_2866)"/>
<mask id="path-27-inside-14_21_2866" fill="white">
<path d="M140.79 0H151.62V18H140.79V0Z"/>
</mask>
<path d="M140.79 0H151.62V18H140.79V0Z" fill="#ECECEC"/>
<path d="M151.62 15H140.79V21H151.62V15Z" fill="black" fill-opacity="0.25" mask="url(#path-27-inside-14_21_2866)"/>
<mask id="path-29-inside-15_21_2866" fill="white">
<path d="M151.62 0H162.45V18H151.62V0Z"/>
</mask>
<path d="M151.62 0H162.45V18H151.62V0Z" fill="#ECECEC"/>
<path d="M162.45 15H151.62V21H162.45V15Z" fill="black" fill-opacity="0.25" mask="url(#path-29-inside-15_21_2866)"/>
<mask id="path-31-inside-16_21_2866" fill="white">
<path d="M162.45 0H173.28V18H162.45V0Z"/>
</mask>
<path d="M162.45 0H173.28V18H162.45V0Z" fill="#ECECEC"/>
<path d="M173.28 15H162.45V21H173.28V15Z" fill="black" fill-opacity="0.25" mask="url(#path-31-inside-16_21_2866)"/>
<mask id="path-33-inside-17_21_2866" fill="white">
<path d="M173.28 0H184.11V18H173.28V0Z"/>
</mask>
<path d="M173.28 0H184.11V18H173.28V0Z" fill="#ECECEC"/>
<path d="M184.11 15H173.28V21H184.11V15Z" fill="black" fill-opacity="0.25" mask="url(#path-33-inside-17_21_2866)"/>
<mask id="path-35-inside-18_21_2866" fill="white">
<path d="M184.11 0H194.94V18H184.11V0Z"/>
</mask>
<path d="M184.11 0H194.94V18H184.11V0Z" fill="#ECECEC"/>
<path d="M194.94 15H184.11V21H194.94V15Z" fill="black" fill-opacity="0.25" mask="url(#path-35-inside-18_21_2866)"/>
<mask id="path-37-inside-19_21_2866" fill="white">
<path d="M194.94 0H205.77V18H194.94V0Z"/>
</mask>
<path d="M194.94 0H205.77V18H194.94V0Z" fill="#ECECEC"/>
<path d="M205.77 15H194.94V21H205.77V15Z" fill="black" fill-opacity="0.25" mask="url(#path-37-inside-19_21_2866)"/>
<mask id="path-39-inside-20_21_2866" fill="white">
<path d="M205.77 0H216.6V18H205.77V0Z"/>
</mask>
<path d="M205.77 0H216.6V18H205.77V0Z" fill="#ECECEC"/>
<path d="M216.6 15H205.77V21H216.6V15Z" fill="black" fill-opacity="0.25" mask="url(#path-39-inside-20_21_2866)"/>
<mask id="path-41-inside-21_21_2866" fill="white">
<path d="M216.6 0H227.43V18H216.6V0Z"/>
</mask>
<path d="M216.6 0H227.43V18H216.6V0Z" fill="#ECECEC"/>
<path d="M227.43 15H216.6V21H227.43V15Z" fill="black" fill-opacity="0.25" mask="url(#path-41-inside-21_21_2866)"/>
<mask id="path-43-inside-22_21_2866" fill="white">
<path d="M227.43 0H238.26V18H227.43V0Z"/>
</mask>
<path d="M227.43 0H238.26V18H227.43V0Z" fill="#ECECEC"/>
<path d="M238.26 15H227.43V21H238.26V15Z" fill="black" fill-opacity="0.25" mask="url(#path-43-inside-22_21_2866)"/>
<mask id="path-45-inside-23_21_2866" fill="white">
<path d="M238.26 0H249.09V18H238.26V0Z"/>
</mask>
<path d="M238.26 0H249.09V18H238.26V0Z" fill="#ECECEC"/>
<path d="M249.09 15H238.26V21H249.09V15Z" fill="black" fill-opacity="0.25" mask="url(#path-45-inside-23_21_2866)"/>
<mask id="path-47-inside-24_21_2866" fill="white">
<path d="M249.09 0H259.92V18H249.09V0Z"/>
</mask>
<path d="M249.09 0H259.92V18H249.09V0Z" fill="#ECECEC"/>
<path d="M259.92 15H249.09V21H259.92V15Z" fill="black" fill-opacity="0.25" mask="url(#path-47-inside-24_21_2866)"/>
<mask id="path-49-inside-25_21_2866" fill="white">
<path d="M259.92 0H271.05V18H259.92V0Z"/>
</mask>
<path d="M259.92 0H271.05V18H259.92V0Z" fill="#ECECEC"/>
<path d="M271.05 15H259.92V21H271.05V15Z" fill="black" fill-opacity="0.25" mask="url(#path-49-inside-25_21_2866)"/>
<mask id="path-51-inside-26_21_2866" fill="white">
<path d="M0 0H1V18H0V0Z"/>
</mask>
<path d="M1 18V0H-1V18H1Z" fill="black" fill-opacity="0.08" mask="url(#path-51-inside-26_21_2866)"/>
<mask id="path-53-inside-27_21_2866" fill="white">
<path d="M10.8301 0H11.8301V18H10.8301V0Z"/>
</mask>
<path d="M11.8301 18V0H9.83008V18H11.8301Z" fill="black" fill-opacity="0.08" mask="url(#path-53-inside-27_21_2866)"/>
<mask id="path-55-inside-28_21_2866" fill="white">
<path d="M21.6602 0H22.6602V18H21.6602V0Z"/>
</mask>
<path d="M22.6602 18V0H20.6602V18H22.6602Z" fill="black" fill-opacity="0.08" mask="url(#path-55-inside-28_21_2866)"/>
<mask id="path-57-inside-29_21_2866" fill="white">
<path d="M32.4805 0H33.4805V18H32.4805V0Z"/>
</mask>
<path d="M33.4805 18V0H31.4805V18H33.4805Z" fill="black" fill-opacity="0.08" mask="url(#path-57-inside-29_21_2866)"/>
<mask id="path-59-inside-30_21_2866" fill="white">
<path d="M43.3096 0H44.3096V18H43.3096V0Z"/>
</mask>
<path d="M44.3096 18V0H42.3096V18H44.3096Z" fill="black" fill-opacity="0.08" mask="url(#path-59-inside-30_21_2866)"/>
<mask id="path-61-inside-31_21_2866" fill="white">
<path d="M54.1396 0H55.1396V18H54.1396V0Z"/>
</mask>
<path d="M55.1396 18V0H53.1396V18H55.1396Z" fill="black" fill-opacity="0.08" mask="url(#path-61-inside-31_21_2866)"/>
<mask id="path-63-inside-32_21_2866" fill="white">
<path d="M64.9697 0H65.9697V18H64.9697V0Z"/>
</mask>
<path d="M65.9697 18V0H63.9697V18H65.9697Z" fill="black" fill-opacity="0.08" mask="url(#path-63-inside-32_21_2866)"/>
<mask id="path-65-inside-33_21_2866" fill="white">
<path d="M78.7998 0H79.7998V18H78.7998V0Z"/>
</mask>
<path d="M79.7998 18V0H77.7998V18H79.7998Z" fill="black" fill-opacity="0.08" mask="url(#path-65-inside-33_21_2866)"/>
<mask id="path-67-inside-34_21_2866" fill="white">
<path d="M89.6299 0H90.6299V18H89.6299V0Z"/>
</mask>
<path d="M90.6299 18V0H88.6299V18H90.6299Z" fill="black" fill-opacity="0.08" mask="url(#path-67-inside-34_21_2866)"/>
<mask id="path-69-inside-35_21_2866" fill="white">
<path d="M100.45 0H101.45V18H100.45V0Z"/>
</mask>
<path d="M101.45 18V0H99.4502V18H101.45Z" fill="black" fill-opacity="0.08" mask="url(#path-69-inside-35_21_2866)"/>
<mask id="path-71-inside-36_21_2866" fill="white">
<path d="M111.28 0H112.28V18H111.28V0Z"/>
</mask>
<path d="M112.28 18V0H110.28V18H112.28Z" fill="black" fill-opacity="0.08" mask="url(#path-71-inside-36_21_2866)"/>
<mask id="path-73-inside-37_21_2866" fill="white">
<path d="M122.11 0H123.11V18H122.11V0Z"/>
</mask>
<path d="M123.11 18V0H121.11V18H123.11Z" fill="black" fill-opacity="0.08" mask="url(#path-73-inside-37_21_2866)"/>
<mask id="path-75-inside-38_21_2866" fill="white">
<path d="M132.94 0H133.94V18H132.94V0Z"/>
</mask>
<path d="M133.94 18V0H131.94V18H133.94Z" fill="black" fill-opacity="0.08" mask="url(#path-75-inside-38_21_2866)"/>
<mask id="path-77-inside-39_21_2866" fill="white">
<path d="M146.77 0H147.77V18H146.77V0Z"/>
</mask>
<path d="M147.77 18V0H145.77V18H147.77Z" fill="black" fill-opacity="0.08" mask="url(#path-77-inside-39_21_2866)"/>
<mask id="path-79-inside-40_21_2866" fill="white">
<path d="M157.59 0H158.59V18H157.59V0Z"/>
</mask>
<path d="M158.59 18V0H156.59V18H158.59Z" fill="black" fill-opacity="0.08" mask="url(#path-79-inside-40_21_2866)"/>
<mask id="path-81-inside-41_21_2866" fill="white">
<path d="M168.42 0H169.42V18H168.42V0Z"/>
</mask>
<path d="M169.42 18V0H167.42V18H169.42Z" fill="black" fill-opacity="0.08" mask="url(#path-81-inside-41_21_2866)"/>
<mask id="path-83-inside-42_21_2866" fill="white">
<path d="M179.25 0H180.25V18H179.25V0Z"/>
</mask>
<path d="M180.25 18V0H178.25V18H180.25Z" fill="black" fill-opacity="0.08" mask="url(#path-83-inside-42_21_2866)"/>
<mask id="path-85-inside-43_21_2866" fill="white">
<path d="M190.08 0H191.08V18H190.08V0Z"/>
</mask>
<path d="M191.08 18V0H189.08V18H191.08Z" fill="black" fill-opacity="0.08" mask="url(#path-85-inside-43_21_2866)"/>
<mask id="path-87-inside-44_21_2866" fill="white">
<path d="M200.91 0H201.91V18H200.91V0Z"/>
</mask>
<path d="M201.91 18V0H199.91V18H201.91Z" fill="black" fill-opacity="0.08" mask="url(#path-87-inside-44_21_2866)"/>
<mask id="path-89-inside-45_21_2866" fill="white">
<path d="M214.73 0H215.73V18H214.73V0Z"/>
</mask>
<path d="M215.73 18V0H213.73V18H215.73Z" fill="black" fill-opacity="0.08" mask="url(#path-89-inside-45_21_2866)"/>
<mask id="path-91-inside-46_21_2866" fill="white">
<path d="M225.56 0H226.56V18H225.56V0Z"/>
</mask>
<path d="M226.56 18V0H224.56V18H226.56Z" fill="black" fill-opacity="0.08" mask="url(#path-91-inside-46_21_2866)"/>
<mask id="path-93-inside-47_21_2866" fill="white">
<path d="M236.39 0H237.39V18H236.39V0Z"/>
</mask>
<path d="M237.39 18V0H235.39V18H237.39Z" fill="black" fill-opacity="0.08" mask="url(#path-93-inside-47_21_2866)"/>
<mask id="path-95-inside-48_21_2866" fill="white">
<path d="M247.22 0H248.22V18H247.22V0Z"/>
</mask>
<path d="M248.22 18V0H246.22V18H248.22Z" fill="black" fill-opacity="0.08" mask="url(#path-95-inside-48_21_2866)"/>
<mask id="path-97-inside-49_21_2866" fill="white">
<path d="M258.05 0H259.05V18H258.05V0Z"/>
</mask>
<path d="M259.05 18V0H257.05V18H259.05Z" fill="black" fill-opacity="0.08" mask="url(#path-97-inside-49_21_2866)"/>
<mask id="path-99-inside-50_21_2866" fill="white">
<path d="M268.88 0H269.88V18H268.88V0Z"/>
</mask>
<path d="M269.88 18V0H267.88V18H269.88Z" fill="black" fill-opacity="0.08" mask="url(#path-99-inside-50_21_2866)"/>
</svg>
