<svg width="15" height="16" viewBox="0 0 15 16" fill="none" xmlns="http://www.w3.org/2000/svg">
<g clip-path="url(#clip0_315_3120)">
<mask id="mask0_315_3120" style="mask-type:luminance" maskUnits="userSpaceOnUse" x="0" y="0" width="15" height="16">
<path d="M11.4844 0.5H3.51562C1.574 0.5 0 2.074 0 4.01562V11.9844C0 13.926 1.574 15.5 3.51562 15.5H11.4844C13.426 15.5 15 13.926 15 11.9844V4.01562C15 2.074 13.426 0.5 11.4844 0.5Z" fill="white"/>
</mask>
<g mask="url(#mask0_315_3120)">
<path fill-rule="evenodd" clip-rule="evenodd" d="M0 0.5H15V15.5H0V0.5Z" fill="white"/>
<path fill-rule="evenodd" clip-rule="evenodd" d="M0.643829 5.40903L2.47255 2.66699L2.92954 2.97179L1.10083 5.71381L0.643829 5.40903ZM1.32934 5.8662L3.15805 3.12418L3.61506 3.42896L1.78634 6.17098L1.32934 5.8662ZM2.01485 6.32337L3.84355 3.58135L4.30056 3.88613L2.47185 6.62818L2.01485 6.32337Z" fill="black"/>
<path fill-rule="evenodd" clip-rule="evenodd" d="M0.643829 5.40903L2.47255 2.66699L2.92954 2.97179L1.10083 5.71381L0.643829 5.40903ZM1.32934 5.8662L3.15805 3.12418L3.61506 3.42896L1.78634 6.17098L1.32934 5.8662ZM2.01485 6.32337L3.84355 3.58135L4.30056 3.88613L2.47185 6.62818L2.01485 6.32337Z" fill="black"/>
<path d="M11.3838 10.5908L13.6688 12.1147" stroke="white" stroke-width="1.17188"/>
<path fill-rule="evenodd" clip-rule="evenodd" d="M4.7572 6.1713C5.24222 5.44408 5.99625 4.93929 6.85343 4.76801C7.71061 4.59672 8.60072 4.77297 9.32796 5.25799C10.0552 5.74298 10.56 6.49701 10.7313 7.35419C10.9025 8.21137 10.7263 9.10151 10.2413 9.82872L4.7572 6.1713Z" fill="#CD2E3A"/>
<path fill-rule="evenodd" clip-rule="evenodd" d="M4.7572 6.1709C4.27221 6.89814 4.09596 7.78825 4.26724 8.64543C4.43852 9.50261 4.9433 10.2566 5.67054 10.7417C6.39778 11.2266 7.28789 11.4029 8.14507 11.2316C9.00225 11.0603 9.75628 10.5556 10.2413 9.82832C10.4838 9.46471 10.5719 9.01966 10.4863 8.59105C10.4006 8.16248 10.1483 7.78546 9.78462 7.54295C9.42101 7.30045 8.97596 7.21232 8.54735 7.29796C8.11878 7.3836 7.74176 7.636 7.49925 7.99961L4.7572 6.1709Z" fill="#0047A0"/>
<path d="M7.49925 7.99998C8.00424 7.24278 7.79979 6.21959 7.04259 5.71461C6.2854 5.20962 5.26219 5.41407 4.7572 6.17126C4.25222 6.92846 4.45669 7.95167 5.21388 8.45666C5.97108 8.96164 6.99427 8.75717 7.49925 7.99998Z" fill="#CD2E3A"/>
<path fill-rule="evenodd" clip-rule="evenodd" d="M2.47405 13.3332L0.645325 10.5912L1.10233 10.2864L2.93103 13.0285L2.47405 13.3332ZM3.15955 12.8761L1.33083 10.134L1.78784 9.82924L3.61656 12.5713L3.15955 12.8761ZM3.84505 12.4189L2.01634 9.67685L2.47334 9.37207L4.30206 12.1141L3.84505 12.4189Z" fill="black"/>
<path fill-rule="evenodd" clip-rule="evenodd" d="M2.47405 13.3332L0.645325 10.5912L1.10233 10.2864L2.93103 13.0285L2.47405 13.3332ZM3.15955 12.8761L1.33083 10.134L1.78784 9.82924L3.61656 12.5713L3.15955 12.8761ZM3.84505 12.4189L2.01634 9.67685L2.47334 9.37207L4.30206 12.1141L3.84505 12.4189Z" fill="black"/>
<path d="M2.13092 11.5806L2.81643 11.1234M11.3853 5.40867L12.1851 4.8753M12.8706 4.41811L13.5561 3.96094" stroke="white" stroke-width="1.17188"/>
</g>
</g>
<defs>
<clipPath id="clip0_315_3120">
<rect width="15" height="15" fill="white" transform="translate(0 0.5)"/>
</clipPath>
</defs>
</svg>
