<svg width="27" height="27" viewBox="0 0 27 27" fill="none" xmlns="http://www.w3.org/2000/svg">
<path d="M21.8682 5.09298H26.8891V8.44019C26.8891 9.12445 26.7572 9.77603 26.4935 10.3949C26.2299 11.0138 25.8736 11.5477 25.4246 11.9966C24.9757 12.4455 24.4418 12.8018 23.823 13.0655C23.2041 13.3292 22.5525 13.461 21.8682 13.461C21.3496 13.461 20.8484 13.3826 20.3646 13.2257C19.7544 14.0973 19.0015 14.8306 18.1059 15.4255C17.2102 16.0205 16.2329 16.4247 15.1738 16.6383V21.8291H16.8474C17.4489 21.8291 18.0067 21.9794 18.521 22.2801C19.0353 22.5809 19.4428 22.9884 19.7435 23.5027C20.0443 24.0169 20.1946 24.5748 20.1946 25.1763H6.80576C6.80576 24.5748 6.95612 24.0169 7.25685 23.5027C7.55757 22.9884 7.96508 22.5809 8.47937 22.2801C8.99365 21.9794 9.55152 21.8291 10.153 21.8291H11.8266V16.6383C10.7675 16.4247 9.79014 16.0205 8.8945 15.4255C7.99886 14.8306 7.24595 14.0973 6.63578 13.2257C6.15201 13.3826 5.6508 13.461 5.13215 13.461C4.44789 13.461 3.79632 13.3292 3.17743 13.0655C2.55854 12.8018 2.02465 12.4455 1.57573 11.9966C1.12682 11.5477 0.770529 11.0138 0.506849 10.3949C0.243168 9.77603 0.111328 9.12445 0.111328 8.44019V5.09298H5.13215V1.74576H21.8682V5.09298ZM5.13215 11.4671C5.3152 11.4671 5.49825 11.4518 5.6813 11.4213C5.3152 10.4538 5.13215 9.46005 5.13215 8.44019V6.76658H2.10527V8.44019C2.10527 8.84988 2.18481 9.24213 2.34389 9.61695C2.50297 9.99177 2.71762 10.3143 2.98784 10.5845C3.25806 10.8547 3.58058 11.0694 3.9554 11.2284C4.33021 11.3875 4.72247 11.4671 5.13215 11.4671ZM24.8951 8.44019V6.76658H21.8682V8.44019C21.8682 9.46005 21.6852 10.4538 21.3191 11.4213C21.5021 11.4518 21.6852 11.4671 21.8682 11.4671C22.2779 11.4671 22.6702 11.3875 23.045 11.2284C23.4198 11.0694 23.7423 10.8547 24.0125 10.5845C24.2828 10.3143 24.4974 9.99177 24.6565 9.61695C24.8156 9.24213 24.8951 8.84988 24.8951 8.44019Z" fill="white"/>
</svg>
