<svg width="16" height="16" viewBox="0 0 16 16" fill="none" xmlns="http://www.w3.org/2000/svg">
<g clip-path="url(#clip0_315_3148)">
<mask id="mask0_315_3148" style="mask-type:luminance" maskUnits="userSpaceOnUse" x="0" y="0" width="16" height="16">
<path d="M11.9844 0.5H4.01562C2.074 0.5 0.5 2.074 0.5 4.01562V11.9844C0.5 13.926 2.074 15.5 4.01562 15.5H11.9844C13.926 15.5 15.5 13.926 15.5 11.9844V4.01562C15.5 2.074 13.926 0.5 11.9844 0.5Z" fill="white"/>
</mask>
<g mask="url(#mask0_315_3148)">
<path d="M0.5 0.5H15.5V15.5H0.5V0.5Z" fill="#012169"/>
<path d="M15.5 0.5V2.375L9.93359 8L15.5 13.4785V15.5H13.5371L7.94141 9.99219L2.49219 15.5H0.5V13.5078L5.94922 8.0293L0.5 2.66797V0.5H2.31641L7.94141 6.00781L13.3906 0.5H15.5Z" fill="white"/>
<path d="M5.89062 9.99219L6.21289 10.9883L1.73047 15.5H0.5V15.4121L5.89062 9.99219ZM9.52344 9.64062L11.1055 9.875L15.5 14.1816V15.5L9.52344 9.64062ZM15.5 0.5L9.875 6.24219L9.75781 4.95312L14.1523 0.5H15.5ZM0.5 0.529297L6.1543 6.06641L4.42578 5.83203L0.5 1.93555V0.529297Z" fill="#C8102E"/>
<path d="M5.65625 0.5V15.5H10.3438V0.5H5.65625ZM0.5 5.65625V10.3438H15.5V5.65625H0.5Z" fill="white"/>
<path d="M0.5 6.59375V9.40625H15.5V6.59375H0.5ZM6.59375 0.5V15.5H9.40625V0.5H6.59375Z" fill="#C8102E"/>
</g>
</g>
<defs>
<clipPath id="clip0_315_3148">
<rect width="15" height="15.2344" fill="white" transform="translate(0.5 0.382812)"/>
</clipPath>
</defs>
</svg>
